<svg width="153" height="222" viewBox="0 0 153 222" fill="none" xmlns="http://www.w3.org/2000/svg">
<path opacity="0.4" d="M15.3825 163.578C17.1631 151.722 20.0776 142.148 24.126 134.855C28.1744 127.563 32.7131 121.914 37.7421 117.909C42.8293 113.687 48.089 110.559 53.521 108.524C59.2284 106.33 64.5228 104.374 69.4043 102.657C74.5611 100.781 78.9076 98.4553 82.4438 95.6795C86.2553 92.7448 88.8301 88.7807 90.1682 83.787C91.9716 77.0564 91.059 71.3433 87.4304 66.6478C83.8018 61.9522 78.2965 58.6154 70.9146 56.6375C66.138 55.3576 60.7236 54.7213 54.6714 54.7285C48.6191 54.7357 42.4214 55.2858 36.0783 56.3786C29.9523 57.5296 23.8979 59.2815 17.9153 61.6344L27.5035 16.7319C34.1957 14.3364 40.8723 12.8675 47.5333 12.3253C54.2525 11.566 60.9057 11.4871 67.4929 12.0886C74.2973 12.7483 80.9562 13.9508 87.4697 15.6961C95.503 17.8486 103.057 20.9199 110.133 24.9101C117.484 28.7414 123.725 33.6717 128.858 39.7012C134.049 45.5135 137.53 52.4966 139.302 60.6504C141.073 68.8042 140.504 78.309 137.595 89.1648C134.919 99.1521 131.188 106.995 126.404 112.694C121.836 118.452 116.553 122.97 110.555 126.249C104.614 129.312 98.6531 132.02 92.6704 134.373C86.7459 136.508 81.0598 139.057 75.6122 142.019C70.2227 144.763 65.5775 148.638 61.6767 153.643C57.7758 158.648 55.0457 165.363 53.4864 173.788L15.3825 163.578ZM18.9645 237.491C8.97712 234.815 2.06838 230.637 -1.76177 224.956C-5.59192 219.276 -6.28529 211.876 -3.8419 202.757C-1.3985 193.638 2.90179 187.577 9.05898 184.573C15.2162 181.568 23.2884 181.404 33.2758 184.08C43.2631 186.756 50.1719 190.935 54.002 196.615C58.0493 202.354 58.8512 209.782 56.4078 218.901C51.6374 236.705 39.1562 242.901 18.9645 237.491Z" fill="#2C2D2D"/>
</svg>
