<svg width="267" height="267" viewBox="0 0 267 267" fill="none" xmlns="http://www.w3.org/2000/svg">
<circle cx="133.097" cy="133.097" r="133.097" fill="#B2D1E0"/>
<path d="M106.541 61.0556C101.914 62.5398 97.7818 67.6035 96.0648 73.8894C95.2209 77.0033 95.1627 83.3765 95.9484 86.374C96.8215 89.8371 98.8004 93.533 100.983 95.832C108.84 104.184 120.452 99.9353 124.09 87.3344C124.875 84.5697 125.166 78.8367 124.643 75.9265C123.479 69.3787 119.841 63.9367 115.126 61.6959C113.409 60.881 112.798 60.7646 110.528 60.7064C108.84 60.6482 107.414 60.7937 106.541 61.0556Z" fill="#1D4985"/>
<path d="M150.747 61.3175C148.651 62.1906 147.866 62.7144 146.09 64.3441C143.413 66.8759 141.143 71.4158 140.357 75.9265C139.834 78.8367 140.125 84.5697 140.91 87.3343C143.879 97.6072 152.318 102.7 160.001 98.9167C164.046 96.9087 167.655 91.9615 168.993 86.5195C170.623 80.0298 169.401 72.4052 165.85 67.0505C164.192 64.5769 162.387 62.9472 159.885 61.7249C158.226 60.881 157.673 60.7646 155.228 60.6773C152.813 60.6191 152.202 60.7064 150.747 61.3175Z" fill="#1D4985"/>
<path d="M69.6697 88.0037C66.6141 88.6148 64.0531 90.7393 62.3943 94.0568C60.9684 96.8797 60.5318 99.1787 60.7064 103.398C60.7937 106.512 60.9684 107.444 61.7541 109.801C62.2779 111.314 63.2674 113.497 63.9658 114.603C65.5955 117.251 68.5639 120.074 70.7174 121.092C72.1725 121.762 72.7545 121.878 75.1699 121.878C78.1965 121.878 79.3896 121.471 81.3977 119.695C85.1518 116.407 86.7814 109.422 85.4137 102.729C83.493 93.4748 76.2467 86.6941 69.6697 88.0037Z" fill="#1D4985"/>
<path d="M191.285 88.1201C185.989 89.6043 181.623 94.9008 179.761 102.089C178.946 105.29 179.063 110.47 180.023 113.351C181.216 117.105 183.253 119.695 186.105 121.209C187.153 121.762 187.822 121.878 189.976 121.878C192.362 121.878 192.798 121.791 194.545 120.918C200.423 118.037 204.41 110.645 204.468 102.525C204.497 98.8004 204.032 96.5305 202.635 93.824C200.248 89.1387 195.767 86.8979 191.285 88.1201Z" fill="#1D4985"/>
<path d="M104.708 115.33C99.6734 116.058 95.3955 118.357 91.5832 122.373C85.3264 128.95 82.067 139.484 83.0273 149.845C84.948 170.536 98.2475 188.579 119.404 199.113C124.002 201.383 131.423 204.381 132.5 204.381C133.577 204.381 140.998 201.413 145.596 199.113C166.665 188.637 180.11 170.448 181.973 149.786C183.253 135.818 176.967 122.431 166.636 117.251C161.543 114.719 154.122 114.486 147.342 116.698C142.686 118.211 138.058 120.918 134.566 124.206L132.5 126.156L130.434 124.206C123.566 117.746 113.002 114.108 104.708 115.33Z" fill="#1D4985"/>
</svg>
