<svg width="61" height="60" viewBox="0 0 61 60" fill="none" xmlns="http://www.w3.org/2000/svg">
<path d="M10.4121 9.92494C9.92777 9.29027 8.91764 9.56093 8.81555 10.3527L8.30945 14.2778C8.27894 14.5145 8.15502 14.7292 7.96531 14.8739L4.81911 17.2748C4.18444 17.7591 4.4551 18.7692 5.2469 18.8713L9.17202 19.3774C9.40869 19.4079 9.62332 19.5318 9.76809 19.7215L12.1689 22.8677C12.6533 23.5024 13.6634 23.2318 13.7655 22.44L14.2716 18.5148C14.3021 18.2782 14.426 18.0635 14.6157 17.9188L17.7619 15.5179C18.3966 15.0336 18.1259 14.0235 17.3341 13.9214L13.409 13.4153C13.1723 13.3848 12.9577 13.2609 12.8129 13.0711L10.4121 9.92494Z" fill="#FFE08B"/>
<path d="M37.0864 -6.56921C36.4163 -7.44738 35.0186 -7.07287 34.8774 -5.97729L34.1771 -0.546261C34.1349 -0.218784 33.9634 0.0781972 33.7009 0.278503L29.3476 3.60047C28.4695 4.27059 28.844 5.66827 29.9395 5.80953L35.3706 6.5098C35.6981 6.55202 35.995 6.72348 36.1953 6.98598L39.5173 11.3392C40.1874 12.2174 41.5851 11.8429 41.7264 10.7473L42.4266 5.3163C42.4689 4.98883 42.6403 4.69185 42.9028 4.49154L47.2561 1.16958C48.1343 0.499449 47.7598 -0.898225 46.6642 -1.03949L41.2331 -1.73975C40.9057 -1.78198 40.6087 -1.95344 40.4084 -2.21593L37.0864 -6.56921Z" fill="#FFCD45" fill-opacity="0.84"/>
<path d="M27.7796 10.4556C26.366 8.6032 23.4178 9.39317 23.1198 11.7042L21.6427 23.1603C21.5536 23.851 21.1919 24.4775 20.6382 24.9L11.4555 31.9073C9.60315 33.3208 10.3931 36.269 12.7041 36.567L24.1602 38.0442C24.851 38.1332 25.4774 38.4949 25.8999 39.0486L32.9072 48.2313C34.3208 50.0837 37.269 49.2937 37.567 46.9827L39.0441 35.5266C39.1332 34.8359 39.4948 34.2094 40.0485 33.7869L49.2312 26.7796C51.0836 25.3661 50.2937 22.4178 47.9827 22.1199L36.5266 20.6427C35.8358 20.5537 35.2094 20.192 34.7868 19.6383L27.7796 10.4556Z" fill="#FABF24"/>
</svg>
