<svg width="30" height="29" viewBox="0 0 30 29" fill="none" xmlns="http://www.w3.org/2000/svg">
<circle cx="15.1484" cy="14.5" r="14.5" fill="#1D4985"/>
<path d="M13.9454 16.9991V16.5492C13.9249 15.9989 14.0327 15.4511 14.2612 14.945C14.5537 14.4307 14.9535 13.9784 15.4362 13.6159C16.0035 13.2021 16.5093 12.7172 16.9398 12.1745C17.1558 11.8209 17.2636 11.417 17.251 11.0083C17.2817 10.5102 17.0699 10.0263 16.6767 9.69573C16.2013 9.35944 15.6153 9.19535 15.0241 9.23297C14.569 9.23225 14.1156 9.28401 13.6737 9.38713C13.1507 9.52118 12.6449 9.70986 12.1656 9.94972L11.6484 8.82483C12.7142 8.28408 13.9036 8.00082 15.1117 8C16.2291 8 17.097 8.2611 17.7155 8.7833C18.355 9.3516 18.695 10.161 18.6433 10.9916C18.6502 11.3551 18.5925 11.7172 18.4724 12.0624C18.3544 12.3777 18.1843 12.673 17.9684 12.9373C17.5289 13.4172 17.0485 13.8618 16.5318 14.2664C16.0774 14.6019 15.6824 15.0044 15.3616 15.4584C15.1536 15.8503 15.0555 16.2865 15.0767 16.725V17L13.9454 16.9991Z" fill="white"/>
<circle cx="14.6484" cy="20" r="1" fill="white"/>
</svg>
