<svg width="166" height="166" viewBox="0 0 166 166" fill="none" xmlns="http://www.w3.org/2000/svg">
<path d="M38.3239 16.9518C39.5892 12.6859 43.9713 10.1556 48.2984 11.193L49.4015 11.4571C52.4418 12.186 55.6086 10.8961 57.2733 8.2497L57.8767 7.28901C60.246 3.52262 65.1486 2.26852 69.0353 4.4347L70.0262 4.98688C72.7571 6.50897 76.1541 6.12093 78.471 4.02191L79.3121 3.26002C82.6097 0.272566 87.6686 0.387785 90.8267 3.52223L91.632 4.32137C93.8511 6.52387 97.2271 7.06635 100.025 5.67008L101.039 5.16421C105.021 3.17701 109.861 4.65254 112.056 8.52287L112.616 9.51C114.158 12.2294 117.263 13.6625 120.333 13.0728L121.447 12.8594C125.817 12.02 130.08 14.7461 131.15 19.0651L131.422 20.1662C132.174 23.201 134.777 25.419 137.893 25.6795L139.023 25.7744C143.457 26.1454 146.826 29.9211 146.69 34.3686L146.656 35.5025C146.561 38.6275 148.469 41.4654 151.399 42.5568L152.461 42.9524C156.631 44.5057 158.856 49.0508 157.526 53.2971L157.187 54.3794C156.252 57.3629 157.324 60.6108 159.851 62.4522L160.767 63.1196C164.363 65.7403 165.28 70.7178 162.853 74.4477L162.235 75.3979C160.53 78.0186 160.686 81.4349 162.622 83.8896L163.325 84.7798C166.08 88.2736 165.619 93.3128 162.277 96.2497L161.425 96.9987C159.076 99.0622 158.305 102.394 159.507 105.28L159.943 106.326C161.653 110.434 159.851 115.163 155.84 117.089L154.817 117.579C151.999 118.933 150.356 121.933 150.735 125.036L150.873 126.162C151.412 130.579 148.401 134.646 144.018 135.418L142.901 135.615C139.822 136.157 137.432 138.603 136.959 141.694L136.788 142.815C136.115 147.213 132.119 150.316 127.69 149.878L126.562 149.766C123.45 149.458 120.488 151.168 119.199 154.017L118.733 155.05C116.898 159.104 112.212 161.014 108.066 159.397L107.01 158.985C104.097 157.849 100.784 158.696 98.7746 161.091L98.0454 161.961C95.1854 165.37 90.1583 165.944 86.6028 163.269L85.696 162.587C83.1978 160.707 79.779 160.629 77.1978 162.393L76.2619 163.033C72.5882 165.544 67.5915 164.741 64.8896 161.205L64.2007 160.305C62.3023 157.821 59.0313 156.823 56.0698 157.825L54.9952 158.189C50.7804 159.615 46.1866 157.494 44.5388 153.361L44.119 152.308C42.9612 149.403 40.08 147.56 36.9579 147.727L35.8258 147.787C31.3823 148.024 27.53 144.741 27.0584 140.316L26.9387 139.189C26.6073 136.08 24.3304 133.528 21.2792 132.846L20.1724 132.598C15.83 131.627 13.0063 127.428 13.7459 123.04L13.9348 121.922C14.4545 118.839 12.9508 115.767 10.1969 114.287L9.19774 113.75C5.27842 111.643 3.69326 106.838 5.5893 102.812L6.0724 101.786C7.40447 98.9575 6.78519 95.5942 4.53281 93.4259L3.71557 92.6393C0.510033 89.5533 0.279933 84.499 3.19169 81.1343L3.93342 80.2764C5.97931 77.9123 6.29058 74.5068 4.70681 71.8113L4.13181 70.8329C1.87775 66.9965 3.01994 62.0673 6.73143 59.6129L7.67696 58.987C10.2849 57.2625 11.5039 54.067 10.706 51.044L10.4158 49.9475C9.28025 45.6451 11.7106 41.2059 15.9468 39.844L17.0264 39.497C20.0028 38.5401 22.038 35.7917 22.0853 32.6656L22.1025 31.5314C22.1701 27.0825 25.7067 23.4641 30.1529 23.2954L31.2874 23.2526C34.4115 23.134 37.1122 21.0364 38.0011 18.0391L38.3239 16.9518Z" fill="#FFF8E6" stroke="#1D4985" stroke-width="1.0777"/>
</svg>
