<svg width="240" height="31" viewBox="0 0 240 31" fill="none" xmlns="http://www.w3.org/2000/svg">
<g filter="url(#filter0_d_38_137)">
<mask id="path-1-outside-1_38_137" maskUnits="userSpaceOnUse" x="2.20581" y="0.915039" width="236" height="26" fill="black">
<rect fill="white" x="2.20581" y="0.915039" width="236" height="26"/>
<path d="M9.55755 23.915L5.06243 3.31243H10.5565L13.2723 19.6697H13.6156L17.0182 3.31243H23.3551L26.82 19.6697H27.1634L29.8792 3.31243H35.0611L30.5348 23.915H23.5424L20.2647 7.58903H19.9525L16.706 23.915H9.55755ZM49.3105 23.915V3.31243H54.3363V23.915H49.3105ZM35.8876 23.915V3.31243H40.9134V23.915H35.8876ZM38.9468 15.5491V11.491H51.3395V15.5491H38.9468ZM56.7389 23.915V3.31243H61.8584V23.915H56.7389ZM72.4167 24.3521C71.0848 24.3521 69.8778 24.2272 68.7957 23.9775C67.7135 23.7277 66.777 23.3531 65.9862 22.8537C65.1954 22.3334 64.5711 21.6779 64.1133 20.8871C63.6554 20.0963 63.3849 19.1806 63.3016 18.1401L67.7031 16.6729C67.7655 17.547 68.0153 18.2753 68.4523 18.858C68.8893 19.4407 69.472 19.8778 70.2004 20.1691C70.9496 20.4396 71.782 20.5749 72.6977 20.5749C73.5717 20.5749 74.3001 20.4709 74.8828 20.2628C75.4863 20.0338 75.9337 19.7529 76.2251 19.4199C76.5373 19.0661 76.6933 18.6915 76.6933 18.2961C76.6933 17.8383 76.4956 17.4637 76.1002 17.1724C75.7048 16.8602 75.1637 16.6001 74.477 16.392C73.7902 16.163 72.989 15.9445 72.0734 15.7364C71.0328 15.4867 70.0131 15.2162 69.0142 14.9248C68.0153 14.6335 67.11 14.2589 66.2984 13.801C65.4868 13.3224 64.8416 12.7189 64.363 11.9905C63.9051 11.2413 63.6762 10.3048 63.6762 9.18105C63.6762 7.9116 63.9988 6.80863 64.6439 5.87215C65.2891 4.93566 66.2359 4.20729 67.4846 3.68702C68.7332 3.14594 70.2732 2.8754 72.1046 2.8754C73.9151 2.8754 75.4551 3.13554 76.7246 3.6558C77.994 4.17607 78.9721 4.90445 79.6589 5.84093C80.3456 6.7566 80.7202 7.82835 80.7826 9.05619L76.2875 10.336C76.2875 9.73253 76.1835 9.20186 75.9754 8.74402C75.7881 8.28619 75.5175 7.9116 75.1637 7.62025C74.81 7.30809 74.3729 7.07917 73.8527 6.93349C73.3324 6.76701 72.7393 6.68376 72.0734 6.68376C71.2825 6.68376 70.6062 6.77741 70.0443 6.96471C69.5032 7.152 69.0974 7.40173 68.8269 7.71389C68.5563 8.00524 68.4211 8.34862 68.4211 8.74402C68.4211 9.24348 68.6292 9.6597 69.0454 9.99267C69.4824 10.3048 70.0651 10.5754 70.7935 10.8043C71.5427 11.0124 72.3647 11.2205 73.2596 11.4286C74.1544 11.6159 75.0805 11.8552 76.0378 12.1466C76.9951 12.4171 77.89 12.7813 78.7224 13.2391C79.5548 13.697 80.2208 14.3213 80.7202 15.1121C81.2405 15.8821 81.5006 16.8602 81.5006 18.0464C81.5006 19.3159 81.1572 20.4292 80.4705 21.3865C79.8045 22.323 78.7952 23.0514 77.4425 23.5717C76.0898 24.0919 74.4146 24.3521 72.4167 24.3521ZM82.8336 23.915V3.31243H87.8594V12.3339C88.8791 11.876 89.826 11.3037 90.7001 10.617C91.5741 9.93024 92.3441 9.18105 93.0101 8.36943C93.6968 7.55781 94.2587 6.72539 94.6957 5.87215C95.1536 4.9981 95.4866 4.14486 95.6947 3.31243H101.501C101.251 4.26972 100.845 5.24782 100.283 6.24674C99.7215 7.22484 99.0452 8.17173 98.2544 9.0874C97.4636 9.98226 96.6103 10.7835 95.6947 11.491C94.7998 12.1986 93.8841 12.7605 92.9476 13.1767V13.6449C93.9049 13.6449 94.7478 13.749 95.4761 13.9571C96.2253 14.1652 96.8809 14.4878 97.4428 14.9248C98.0255 15.3618 98.5249 15.9133 98.9411 16.5793C99.3782 17.2244 99.7527 18.0048 100.065 18.9205L101.844 23.915H96.1317L94.9767 19.8257C94.727 18.9101 94.394 18.1921 93.9778 17.6718C93.5616 17.1307 93.0101 16.7457 92.3233 16.5168C91.6366 16.2671 90.7521 16.1422 89.67 16.1422H87.8594V23.915H82.8336ZM102.649 23.915V3.31243H107.706V23.915H102.649ZM106.301 23.915V19.8569H119.006V23.915H106.301ZM106.301 15.3618V11.7096H117.414V15.3618H106.301ZM106.301 7.3393V3.31243H118.912V7.3393H106.301ZM120.421 23.915V3.31243H129.193C130.337 3.31243 131.378 3.40608 132.314 3.59337C133.251 3.75986 134.073 4.01999 134.78 4.37377C135.509 4.70675 136.123 5.12296 136.622 5.62242C137.122 6.10106 137.496 6.66295 137.746 7.30809C137.996 7.93241 138.12 8.62957 138.12 9.39956C138.12 10.1279 138.006 10.7835 137.777 11.3662C137.548 11.9489 137.194 12.4587 136.716 12.8958C136.258 13.3328 135.675 13.6866 134.968 13.9571C134.26 14.2276 133.438 14.4254 132.502 14.5502V15.0185C133.688 15.1433 134.603 15.4139 135.249 15.8301C135.915 16.2255 136.424 16.7562 136.778 17.4221C137.132 18.088 137.444 18.8893 137.715 19.8257L138.901 23.915H133.313L132.408 20.1379C132.221 19.3055 131.961 18.6603 131.628 18.2025C131.315 17.7447 130.91 17.4325 130.41 17.266C129.911 17.0787 129.286 16.9851 128.537 16.9851H125.447V23.915H120.421ZM125.447 13.2704H128.849C130.119 13.2704 131.107 13.0206 131.815 12.5212C132.522 12.0217 132.876 11.2413 132.876 10.18C132.876 9.13943 132.554 8.36943 131.908 7.86998C131.263 7.37052 130.285 7.12079 128.974 7.12079H125.447V13.2704ZM148.14 24.3521C146.808 24.3521 145.601 24.2272 144.519 23.9775C143.437 23.7277 142.5 23.3531 141.71 22.8537C140.919 22.3334 140.294 21.6779 139.837 20.8871C139.379 20.0963 139.108 19.1806 139.025 18.1401L143.426 16.6729C143.489 17.547 143.739 18.2753 144.176 18.858C144.613 19.4407 145.195 19.8778 145.924 20.1691C146.673 20.4396 147.505 20.5749 148.421 20.5749C149.295 20.5749 150.023 20.4709 150.606 20.2628C151.21 20.0338 151.657 19.7529 151.948 19.4199C152.261 19.0661 152.417 18.6915 152.417 18.2961C152.417 17.8383 152.219 17.4637 151.824 17.1724C151.428 16.8602 150.887 16.6001 150.2 16.392C149.514 16.163 148.712 15.9445 147.797 15.7364C146.756 15.4867 145.736 15.2162 144.738 14.9248C143.739 14.6335 142.833 14.2589 142.022 13.801C141.21 13.3224 140.565 12.7189 140.086 11.9905C139.629 11.2413 139.4 10.3048 139.4 9.18105C139.4 7.9116 139.722 6.80863 140.367 5.87215C141.012 4.93566 141.959 4.20729 143.208 3.68702C144.457 3.14594 145.997 2.8754 147.828 2.8754C149.638 2.8754 151.178 3.13554 152.448 3.6558C153.717 4.17607 154.695 4.90445 155.382 5.84093C156.069 6.7566 156.444 7.82835 156.506 9.05619L152.011 10.336C152.011 9.73253 151.907 9.20186 151.699 8.74402C151.511 8.28619 151.241 7.9116 150.887 7.62025C150.533 7.30809 150.096 7.07917 149.576 6.93349C149.056 6.76701 148.463 6.68376 147.797 6.68376C147.006 6.68376 146.33 6.77741 145.768 6.96471C145.227 7.152 144.821 7.40173 144.55 7.71389C144.28 8.00524 144.144 8.34862 144.144 8.74402C144.144 9.24348 144.353 9.6597 144.769 9.99267C145.206 10.3048 145.788 10.5754 146.517 10.8043C147.266 11.0124 148.088 11.2205 148.983 11.4286C149.878 11.6159 150.804 11.8552 151.761 12.1466C152.718 12.4171 153.613 12.7813 154.446 13.2391C155.278 13.697 155.944 14.3213 156.444 15.1121C156.964 15.8821 157.224 16.8602 157.224 18.0464C157.224 19.3159 156.881 20.4292 156.194 21.3865C155.528 22.323 154.519 23.0514 153.166 23.5717C151.813 24.0919 150.138 24.3521 148.14 24.3521ZM173.233 24.3521C171.61 24.3521 170.153 24.1336 168.863 23.6965C167.573 23.2595 166.47 22.5936 165.554 21.6987C164.659 20.8038 163.973 19.7113 163.494 18.421C163.036 17.1099 162.807 15.5803 162.807 13.8322C162.807 12.0425 163.047 10.4713 163.525 9.11862C164.004 7.76592 164.691 6.62133 165.586 5.68485C166.501 4.74837 167.573 4.05121 168.801 3.59337C170.029 3.11473 171.392 2.8754 172.89 2.8754C174.076 2.8754 175.158 3.02108 176.137 3.31243C177.135 3.60378 177.999 4.0408 178.727 4.6235C179.456 5.18539 180.018 5.87215 180.413 6.68376C180.829 7.47457 181.048 8.37984 181.069 9.39956L176.417 10.6794C176.417 9.82618 176.23 9.12902 175.856 8.58794C175.502 8.04687 175.044 7.64106 174.482 7.37052C173.941 7.07917 173.348 6.93349 172.703 6.93349C172.183 6.93349 171.641 7.04795 171.08 7.27687C170.538 7.48498 170.039 7.84916 169.581 8.36943C169.123 8.86889 168.759 9.53483 168.489 10.3673C168.218 11.1997 168.083 12.2402 168.083 13.4889C168.083 15.1121 168.312 16.4232 168.77 17.4221C169.227 18.421 169.862 19.1598 170.674 19.6384C171.485 20.0963 172.38 20.3252 173.358 20.3252C174.44 20.3252 175.273 20.0963 175.856 19.6384C176.459 19.1598 176.886 18.5667 177.135 17.8591C177.385 17.1516 177.52 16.4336 177.541 15.7052L181.912 16.392C181.891 17.5157 181.724 18.5667 181.412 19.5448C181.1 20.5229 180.6 21.3761 179.914 22.1045C179.248 22.8121 178.363 23.3636 177.26 23.759C176.157 24.1544 174.815 24.3521 173.233 24.3521ZM182.975 23.915V3.31243H188.001V23.915H182.975ZM183.88 23.915V19.7009H196.398V23.915H183.88ZM205.905 24.3521C204.594 24.3521 203.428 24.2168 202.409 23.9463C201.389 23.6965 200.504 23.3219 199.755 22.8225C199.006 22.323 198.382 21.7195 197.882 21.0119C197.404 20.3044 197.039 19.5136 196.79 18.6395C196.561 17.7447 196.446 16.777 196.446 15.7364V3.31243H201.503V15.5803C201.503 16.5793 201.659 17.4013 201.971 18.0464C202.284 18.6915 202.762 19.1702 203.407 19.4824C204.053 19.7737 204.875 19.9194 205.874 19.9194C206.872 19.9194 207.694 19.7737 208.34 19.4824C208.985 19.1702 209.463 18.6915 209.776 18.0464C210.088 17.4013 210.244 16.5793 210.244 15.5803V3.31243H215.27V15.7364C215.27 18.4626 214.489 20.5853 212.928 22.1045C211.388 23.6029 209.047 24.3521 205.905 24.3521ZM217.514 23.915V3.31243H226.411C227.701 3.31243 228.856 3.42689 229.876 3.6558C230.916 3.86391 231.8 4.19688 232.529 4.65472C233.257 5.09174 233.809 5.66404 234.183 6.3716C234.579 7.05836 234.776 7.88038 234.776 8.83767C234.776 9.64929 234.6 10.3569 234.246 10.9604C233.913 11.5639 233.382 12.0529 232.654 12.4275C231.925 12.8021 230.958 13.0518 229.751 13.1767V13.7074C231.748 13.8322 233.226 14.3109 234.183 15.1433C235.141 15.9757 235.619 17.0995 235.619 18.5147C235.619 19.7217 235.297 20.7206 234.652 21.5114C234.006 22.3022 233.06 22.9057 231.811 23.3219C230.562 23.7173 229.022 23.915 227.191 23.915H217.514ZM222.321 19.9194H227.004C228.273 19.9194 229.21 19.7425 229.813 19.3887C230.417 19.0141 230.718 18.4314 230.718 17.6406C230.718 16.7666 230.354 16.111 229.626 15.674C228.897 15.237 227.784 15.0185 226.286 15.0185H222.321V19.9194ZM222.321 11.9593H225.599C227.076 11.9593 228.159 11.7616 228.845 11.3662C229.532 10.95 229.876 10.336 229.876 9.52443C229.876 8.73362 229.553 8.16132 228.908 7.80754C228.283 7.43295 227.326 7.24565 226.036 7.24565H222.321V11.9593Z"/>
</mask>
<path d="M9.55755 23.915L5.06243 3.31243H10.5565L13.2723 19.6697H13.6156L17.0182 3.31243H23.3551L26.82 19.6697H27.1634L29.8792 3.31243H35.0611L30.5348 23.915H23.5424L20.2647 7.58903H19.9525L16.706 23.915H9.55755ZM49.3105 23.915V3.31243H54.3363V23.915H49.3105ZM35.8876 23.915V3.31243H40.9134V23.915H35.8876ZM38.9468 15.5491V11.491H51.3395V15.5491H38.9468ZM56.7389 23.915V3.31243H61.8584V23.915H56.7389ZM72.4167 24.3521C71.0848 24.3521 69.8778 24.2272 68.7957 23.9775C67.7135 23.7277 66.777 23.3531 65.9862 22.8537C65.1954 22.3334 64.5711 21.6779 64.1133 20.8871C63.6554 20.0963 63.3849 19.1806 63.3016 18.1401L67.7031 16.6729C67.7655 17.547 68.0153 18.2753 68.4523 18.858C68.8893 19.4407 69.472 19.8778 70.2004 20.1691C70.9496 20.4396 71.782 20.5749 72.6977 20.5749C73.5717 20.5749 74.3001 20.4709 74.8828 20.2628C75.4863 20.0338 75.9337 19.7529 76.2251 19.4199C76.5373 19.0661 76.6933 18.6915 76.6933 18.2961C76.6933 17.8383 76.4956 17.4637 76.1002 17.1724C75.7048 16.8602 75.1637 16.6001 74.477 16.392C73.7902 16.163 72.989 15.9445 72.0734 15.7364C71.0328 15.4867 70.0131 15.2162 69.0142 14.9248C68.0153 14.6335 67.11 14.2589 66.2984 13.801C65.4868 13.3224 64.8416 12.7189 64.363 11.9905C63.9051 11.2413 63.6762 10.3048 63.6762 9.18105C63.6762 7.9116 63.9988 6.80863 64.6439 5.87215C65.2891 4.93566 66.2359 4.20729 67.4846 3.68702C68.7332 3.14594 70.2732 2.8754 72.1046 2.8754C73.9151 2.8754 75.4551 3.13554 76.7246 3.6558C77.994 4.17607 78.9721 4.90445 79.6589 5.84093C80.3456 6.7566 80.7202 7.82835 80.7826 9.05619L76.2875 10.336C76.2875 9.73253 76.1835 9.20186 75.9754 8.74402C75.7881 8.28619 75.5175 7.9116 75.1637 7.62025C74.81 7.30809 74.3729 7.07917 73.8527 6.93349C73.3324 6.76701 72.7393 6.68376 72.0734 6.68376C71.2825 6.68376 70.6062 6.77741 70.0443 6.96471C69.5032 7.152 69.0974 7.40173 68.8269 7.71389C68.5563 8.00524 68.4211 8.34862 68.4211 8.74402C68.4211 9.24348 68.6292 9.6597 69.0454 9.99267C69.4824 10.3048 70.0651 10.5754 70.7935 10.8043C71.5427 11.0124 72.3647 11.2205 73.2596 11.4286C74.1544 11.6159 75.0805 11.8552 76.0378 12.1466C76.9951 12.4171 77.89 12.7813 78.7224 13.2391C79.5548 13.697 80.2208 14.3213 80.7202 15.1121C81.2405 15.8821 81.5006 16.8602 81.5006 18.0464C81.5006 19.3159 81.1572 20.4292 80.4705 21.3865C79.8045 22.323 78.7952 23.0514 77.4425 23.5717C76.0898 24.0919 74.4146 24.3521 72.4167 24.3521ZM82.8336 23.915V3.31243H87.8594V12.3339C88.8791 11.876 89.826 11.3037 90.7001 10.617C91.5741 9.93024 92.3441 9.18105 93.0101 8.36943C93.6968 7.55781 94.2587 6.72539 94.6957 5.87215C95.1536 4.9981 95.4866 4.14486 95.6947 3.31243H101.501C101.251 4.26972 100.845 5.24782 100.283 6.24674C99.7215 7.22484 99.0452 8.17173 98.2544 9.0874C97.4636 9.98226 96.6103 10.7835 95.6947 11.491C94.7998 12.1986 93.8841 12.7605 92.9476 13.1767V13.6449C93.9049 13.6449 94.7478 13.749 95.4761 13.9571C96.2253 14.1652 96.8809 14.4878 97.4428 14.9248C98.0255 15.3618 98.5249 15.9133 98.9411 16.5793C99.3782 17.2244 99.7527 18.0048 100.065 18.9205L101.844 23.915H96.1317L94.9767 19.8257C94.727 18.9101 94.394 18.1921 93.9778 17.6718C93.5616 17.1307 93.0101 16.7457 92.3233 16.5168C91.6366 16.2671 90.7521 16.1422 89.67 16.1422H87.8594V23.915H82.8336ZM102.649 23.915V3.31243H107.706V23.915H102.649ZM106.301 23.915V19.8569H119.006V23.915H106.301ZM106.301 15.3618V11.7096H117.414V15.3618H106.301ZM106.301 7.3393V3.31243H118.912V7.3393H106.301ZM120.421 23.915V3.31243H129.193C130.337 3.31243 131.378 3.40608 132.314 3.59337C133.251 3.75986 134.073 4.01999 134.78 4.37377C135.509 4.70675 136.123 5.12296 136.622 5.62242C137.122 6.10106 137.496 6.66295 137.746 7.30809C137.996 7.93241 138.12 8.62957 138.12 9.39956C138.12 10.1279 138.006 10.7835 137.777 11.3662C137.548 11.9489 137.194 12.4587 136.716 12.8958C136.258 13.3328 135.675 13.6866 134.968 13.9571C134.26 14.2276 133.438 14.4254 132.502 14.5502V15.0185C133.688 15.1433 134.603 15.4139 135.249 15.8301C135.915 16.2255 136.424 16.7562 136.778 17.4221C137.132 18.088 137.444 18.8893 137.715 19.8257L138.901 23.915H133.313L132.408 20.1379C132.221 19.3055 131.961 18.6603 131.628 18.2025C131.315 17.7447 130.91 17.4325 130.41 17.266C129.911 17.0787 129.286 16.9851 128.537 16.9851H125.447V23.915H120.421ZM125.447 13.2704H128.849C130.119 13.2704 131.107 13.0206 131.815 12.5212C132.522 12.0217 132.876 11.2413 132.876 10.18C132.876 9.13943 132.554 8.36943 131.908 7.86998C131.263 7.37052 130.285 7.12079 128.974 7.12079H125.447V13.2704ZM148.14 24.3521C146.808 24.3521 145.601 24.2272 144.519 23.9775C143.437 23.7277 142.5 23.3531 141.71 22.8537C140.919 22.3334 140.294 21.6779 139.837 20.8871C139.379 20.0963 139.108 19.1806 139.025 18.1401L143.426 16.6729C143.489 17.547 143.739 18.2753 144.176 18.858C144.613 19.4407 145.195 19.8778 145.924 20.1691C146.673 20.4396 147.505 20.5749 148.421 20.5749C149.295 20.5749 150.023 20.4709 150.606 20.2628C151.21 20.0338 151.657 19.7529 151.948 19.4199C152.261 19.0661 152.417 18.6915 152.417 18.2961C152.417 17.8383 152.219 17.4637 151.824 17.1724C151.428 16.8602 150.887 16.6001 150.2 16.392C149.514 16.163 148.712 15.9445 147.797 15.7364C146.756 15.4867 145.736 15.2162 144.738 14.9248C143.739 14.6335 142.833 14.2589 142.022 13.801C141.21 13.3224 140.565 12.7189 140.086 11.9905C139.629 11.2413 139.4 10.3048 139.4 9.18105C139.4 7.9116 139.722 6.80863 140.367 5.87215C141.012 4.93566 141.959 4.20729 143.208 3.68702C144.457 3.14594 145.997 2.8754 147.828 2.8754C149.638 2.8754 151.178 3.13554 152.448 3.6558C153.717 4.17607 154.695 4.90445 155.382 5.84093C156.069 6.7566 156.444 7.82835 156.506 9.05619L152.011 10.336C152.011 9.73253 151.907 9.20186 151.699 8.74402C151.511 8.28619 151.241 7.9116 150.887 7.62025C150.533 7.30809 150.096 7.07917 149.576 6.93349C149.056 6.76701 148.463 6.68376 147.797 6.68376C147.006 6.68376 146.33 6.77741 145.768 6.96471C145.227 7.152 144.821 7.40173 144.55 7.71389C144.28 8.00524 144.144 8.34862 144.144 8.74402C144.144 9.24348 144.353 9.6597 144.769 9.99267C145.206 10.3048 145.788 10.5754 146.517 10.8043C147.266 11.0124 148.088 11.2205 148.983 11.4286C149.878 11.6159 150.804 11.8552 151.761 12.1466C152.718 12.4171 153.613 12.7813 154.446 13.2391C155.278 13.697 155.944 14.3213 156.444 15.1121C156.964 15.8821 157.224 16.8602 157.224 18.0464C157.224 19.3159 156.881 20.4292 156.194 21.3865C155.528 22.323 154.519 23.0514 153.166 23.5717C151.813 24.0919 150.138 24.3521 148.14 24.3521ZM173.233 24.3521C171.61 24.3521 170.153 24.1336 168.863 23.6965C167.573 23.2595 166.47 22.5936 165.554 21.6987C164.659 20.8038 163.973 19.7113 163.494 18.421C163.036 17.1099 162.807 15.5803 162.807 13.8322C162.807 12.0425 163.047 10.4713 163.525 9.11862C164.004 7.76592 164.691 6.62133 165.586 5.68485C166.501 4.74837 167.573 4.05121 168.801 3.59337C170.029 3.11473 171.392 2.8754 172.89 2.8754C174.076 2.8754 175.158 3.02108 176.137 3.31243C177.135 3.60378 177.999 4.0408 178.727 4.6235C179.456 5.18539 180.018 5.87215 180.413 6.68376C180.829 7.47457 181.048 8.37984 181.069 9.39956L176.417 10.6794C176.417 9.82618 176.23 9.12902 175.856 8.58794C175.502 8.04687 175.044 7.64106 174.482 7.37052C173.941 7.07917 173.348 6.93349 172.703 6.93349C172.183 6.93349 171.641 7.04795 171.08 7.27687C170.538 7.48498 170.039 7.84916 169.581 8.36943C169.123 8.86889 168.759 9.53483 168.489 10.3673C168.218 11.1997 168.083 12.2402 168.083 13.4889C168.083 15.1121 168.312 16.4232 168.77 17.4221C169.227 18.421 169.862 19.1598 170.674 19.6384C171.485 20.0963 172.38 20.3252 173.358 20.3252C174.44 20.3252 175.273 20.0963 175.856 19.6384C176.459 19.1598 176.886 18.5667 177.135 17.8591C177.385 17.1516 177.52 16.4336 177.541 15.7052L181.912 16.392C181.891 17.5157 181.724 18.5667 181.412 19.5448C181.1 20.5229 180.6 21.3761 179.914 22.1045C179.248 22.8121 178.363 23.3636 177.26 23.759C176.157 24.1544 174.815 24.3521 173.233 24.3521ZM182.975 23.915V3.31243H188.001V23.915H182.975ZM183.88 23.915V19.7009H196.398V23.915H183.88ZM205.905 24.3521C204.594 24.3521 203.428 24.2168 202.409 23.9463C201.389 23.6965 200.504 23.3219 199.755 22.8225C199.006 22.323 198.382 21.7195 197.882 21.0119C197.404 20.3044 197.039 19.5136 196.79 18.6395C196.561 17.7447 196.446 16.777 196.446 15.7364V3.31243H201.503V15.5803C201.503 16.5793 201.659 17.4013 201.971 18.0464C202.284 18.6915 202.762 19.1702 203.407 19.4824C204.053 19.7737 204.875 19.9194 205.874 19.9194C206.872 19.9194 207.694 19.7737 208.34 19.4824C208.985 19.1702 209.463 18.6915 209.776 18.0464C210.088 17.4013 210.244 16.5793 210.244 15.5803V3.31243H215.27V15.7364C215.27 18.4626 214.489 20.5853 212.928 22.1045C211.388 23.6029 209.047 24.3521 205.905 24.3521ZM217.514 23.915V3.31243H226.411C227.701 3.31243 228.856 3.42689 229.876 3.6558C230.916 3.86391 231.8 4.19688 232.529 4.65472C233.257 5.09174 233.809 5.66404 234.183 6.3716C234.579 7.05836 234.776 7.88038 234.776 8.83767C234.776 9.64929 234.6 10.3569 234.246 10.9604C233.913 11.5639 233.382 12.0529 232.654 12.4275C231.925 12.8021 230.958 13.0518 229.751 13.1767V13.7074C231.748 13.8322 233.226 14.3109 234.183 15.1433C235.141 15.9757 235.619 17.0995 235.619 18.5147C235.619 19.7217 235.297 20.7206 234.652 21.5114C234.006 22.3022 233.06 22.9057 231.811 23.3219C230.562 23.7173 229.022 23.915 227.191 23.915H217.514ZM222.321 19.9194H227.004C228.273 19.9194 229.21 19.7425 229.813 19.3887C230.417 19.0141 230.718 18.4314 230.718 17.6406C230.718 16.7666 230.354 16.111 229.626 15.674C228.897 15.237 227.784 15.0185 226.286 15.0185H222.321V19.9194ZM222.321 11.9593H225.599C227.076 11.9593 228.159 11.7616 228.845 11.3662C229.532 10.95 229.876 10.336 229.876 9.52443C229.876 8.73362 229.553 8.16132 228.908 7.80754C228.283 7.43295 227.326 7.24565 226.036 7.24565H222.321V11.9593Z" fill="white" shape-rendering="crispEdges"/>
<path d="M9.55755 23.915L7.65138 24.3309L7.98632 25.866H9.55755V23.915ZM5.06243 3.31243V1.36142H2.63986L3.15627 3.72832L5.06243 3.31243ZM10.5565 3.31243L12.4811 2.99288L12.2102 1.36142H10.5565V3.31243ZM13.2723 19.6697L11.3476 19.9892L11.6185 21.6207H13.2723V19.6697ZM13.6156 19.6697V21.6207H15.2026L15.5258 20.067L13.6156 19.6697ZM17.0182 3.31243V1.36142H15.4313L15.1081 2.91509L17.0182 3.31243ZM23.3551 3.31243L25.2637 2.90811L24.9361 1.36142H23.3551V3.31243ZM26.82 19.6697L24.9114 20.074L25.239 21.6207H26.82V19.6697ZM27.1634 19.6697V21.6207H28.8172L29.0881 19.9892L27.1634 19.6697ZM29.8792 3.31243V1.36142H28.2254L27.9546 2.99288L29.8792 3.31243ZM35.0611 3.31243L36.9666 3.73107L37.4872 1.36142H35.0611V3.31243ZM30.5348 23.915V25.866H32.1037L32.4403 24.3337L30.5348 23.915ZM23.5424 23.915L21.6295 24.2991L21.9441 25.866H23.5424V23.915ZM20.2647 7.58903L22.1775 7.205L21.8629 5.63803H20.2647V7.58903ZM19.9525 7.58903V5.63803H18.3513L18.039 7.20852L19.9525 7.58903ZM16.706 23.915V25.866H18.3073L18.6196 24.2956L16.706 23.915ZM9.55755 23.915L11.4637 23.4991L6.96859 2.89654L5.06243 3.31243L3.15627 3.72832L7.65138 24.3309L9.55755 23.915ZM5.06243 3.31243V5.26343H10.5565V3.31243V1.36142H5.06243V3.31243ZM10.5565 3.31243L8.6318 3.63198L11.3476 19.9892L13.2723 19.6697L15.1969 19.3501L12.4811 2.99288L10.5565 3.31243ZM13.2723 19.6697V21.6207H13.6156V19.6697V17.7186H13.2723V19.6697ZM13.6156 19.6697L15.5258 20.067L18.9283 3.70976L17.0182 3.31243L15.1081 2.91509L11.7055 19.2723L13.6156 19.6697ZM17.0182 3.31243V5.26343H23.3551V3.31243V1.36142H17.0182V3.31243ZM23.3551 3.31243L21.4464 3.71674L24.9114 20.074L26.82 19.6697L28.7287 19.2653L25.2637 2.90811L23.3551 3.31243ZM26.82 19.6697V21.6207H27.1634V19.6697V17.7186H26.82V19.6697ZM27.1634 19.6697L29.0881 19.9892L31.8039 3.63198L29.8792 3.31243L27.9546 2.99288L25.2388 19.3501L27.1634 19.6697ZM29.8792 3.31243V5.26343H35.0611V3.31243V1.36142H29.8792V3.31243ZM35.0611 3.31243L33.1555 2.89378L28.6292 23.4964L30.5348 23.915L32.4403 24.3337L36.9666 3.73107L35.0611 3.31243ZM30.5348 23.915V21.964H23.5424V23.915V25.866H30.5348V23.915ZM23.5424 23.915L25.4552 23.531L22.1775 7.205L20.2647 7.58903L18.3518 7.97306L21.6295 24.2991L23.5424 23.915ZM20.2647 7.58903V5.63803H19.9525V7.58903V9.54004H20.2647V7.58903ZM19.9525 7.58903L18.039 7.20852L14.7925 23.5345L16.706 23.915L18.6196 24.2956L21.866 7.96954L19.9525 7.58903ZM16.706 23.915V21.964H9.55755V23.915V25.866H16.706V23.915ZM49.3105 23.915H47.3595V25.866H49.3105V23.915ZM49.3105 3.31243V1.36142H47.3595V3.31243H49.3105ZM54.3363 3.31243H56.2873V1.36142H54.3363V3.31243ZM54.3363 23.915V25.866H56.2873V23.915H54.3363ZM35.8876 23.915H33.9366V25.866H35.8876V23.915ZM35.8876 3.31243V1.36142H33.9366V3.31243H35.8876ZM40.9134 3.31243H42.8644V1.36142H40.9134V3.31243ZM40.9134 23.915V25.866H42.8644V23.915H40.9134ZM38.9468 15.5491H36.9958V17.5001H38.9468V15.5491ZM38.9468 11.491V9.54003H36.9958V11.491H38.9468ZM51.3395 11.491H53.2905V9.54003H51.3395V11.491ZM51.3395 15.5491V17.5001H53.2905V15.5491H51.3395ZM49.3105 23.915H51.2615V3.31243H49.3105H47.3595V23.915H49.3105ZM49.3105 3.31243V5.26343H54.3363V3.31243V1.36142H49.3105V3.31243ZM54.3363 3.31243H52.3853V23.915H54.3363H56.2873V3.31243H54.3363ZM54.3363 23.915V21.964H49.3105V23.915V25.866H54.3363V23.915ZM35.8876 23.915H37.8386V3.31243H35.8876H33.9366V23.915H35.8876ZM35.8876 3.31243V5.26343H40.9134V3.31243V1.36142H35.8876V3.31243ZM40.9134 3.31243H38.9624V23.915H40.9134H42.8644V3.31243H40.9134ZM40.9134 23.915V21.964H35.8876V23.915V25.866H40.9134V23.915ZM38.9468 15.5491H40.8978V11.491H38.9468H36.9958V15.5491H38.9468ZM38.9468 11.491V13.442H51.3395V11.491V9.54003H38.9468V11.491ZM51.3395 11.491H49.3885V15.5491H51.3395H53.2905V11.491H51.3395ZM51.3395 15.5491V13.5981H38.9468V15.5491V17.5001H51.3395V15.5491ZM56.7389 23.915H54.7879V25.866H56.7389V23.915ZM56.7389 3.31243V1.36142H54.7879V3.31243H56.7389ZM61.8584 3.31243H63.8094V1.36142H61.8584V3.31243ZM61.8584 23.915V25.866H63.8094V23.915H61.8584ZM56.7389 23.915H58.6899V3.31243H56.7389H54.7879V23.915H56.7389ZM56.7389 3.31243V5.26343H61.8584V3.31243V1.36142H56.7389V3.31243ZM61.8584 3.31243H59.9074V23.915H61.8584H63.8094V3.31243H61.8584ZM61.8584 23.915V21.964H56.7389V23.915V25.866H61.8584V23.915ZM68.7957 23.9775L68.357 25.8785L68.7957 23.9775ZM65.9862 22.8537L64.9139 24.4836L64.9291 24.4936L64.9444 24.5032L65.9862 22.8537ZM64.1133 20.8871L65.8017 19.9096L64.1133 20.8871ZM63.3016 18.1401L62.6847 16.2892L61.235 16.7724L61.3568 18.2956L63.3016 18.1401ZM67.7031 16.6729L69.6491 16.5339L69.4701 14.0274L67.0861 14.822L67.7031 16.6729ZM68.4523 18.858L66.8915 20.0286L68.4523 18.858ZM70.2004 20.1691L69.4758 21.9806L69.5066 21.9929L69.5377 22.0041L70.2004 20.1691ZM74.8828 20.2628L75.539 22.1001L75.5569 22.0937L75.5747 22.0869L74.8828 20.2628ZM76.2251 19.4199L74.7621 18.1291L74.7568 18.1352L76.2251 19.4199ZM76.1002 17.1724L74.8913 18.7037L74.9168 18.7238L74.9429 18.743L76.1002 17.1724ZM74.477 16.392L73.86 18.2428L73.8855 18.2513L73.9112 18.2591L74.477 16.392ZM72.0734 15.7364L71.618 17.6336L71.6295 17.6363L71.641 17.6389L72.0734 15.7364ZM69.0142 14.9248L69.5605 13.0518L69.0142 14.9248ZM66.2984 13.801L65.3073 15.4816L65.3235 15.4911L65.3398 15.5003L66.2984 13.801ZM64.363 11.9905L62.6982 13.0078L62.7149 13.0352L62.7325 13.0619L64.363 11.9905ZM64.6439 5.87215L66.2506 6.97896V6.97896L64.6439 5.87215ZM67.4846 3.68702L68.235 5.48795L68.2477 5.48265L68.2603 5.47718L67.4846 3.68702ZM76.7245 3.6558L77.4644 1.85053V1.85053L76.7245 3.6558ZM79.6589 5.84093L78.0856 6.99468L78.0918 7.00314L78.0981 7.01153L79.6589 5.84093ZM80.7826 9.05619L81.3169 10.9326L82.81 10.5075L82.7311 8.95711L80.7826 9.05619ZM76.2875 10.336H74.3365V12.9201L76.8218 12.2125L76.2875 10.336ZM75.9754 8.74402L74.1696 9.48274L74.1838 9.51733L74.1992 9.55135L75.9754 8.74402ZM75.1637 7.62025L73.8729 9.08318L73.8978 9.10517L73.9235 9.12629L75.1637 7.62025ZM73.8527 6.93349L73.258 8.79168L73.2921 8.80259L73.3266 8.81224L73.8527 6.93349ZM70.0443 6.96471L69.4273 5.11382L69.4167 5.11737L69.4061 5.12103L70.0443 6.96471ZM68.8269 7.71389L70.2566 9.04145L70.2793 9.01694L70.3012 8.99167L68.8269 7.71389ZM69.0454 9.99267L67.8266 11.5161L67.8681 11.5494L67.9114 11.5803L69.0454 9.99267ZM70.7935 10.8043L70.2085 12.6655L70.2398 12.6754L70.2713 12.6841L70.7935 10.8043ZM73.2596 11.4286L72.8176 13.3289L72.8387 13.3338L72.8599 13.3382L73.2596 11.4286ZM76.0378 12.1466L75.4697 14.0131L75.4884 14.0187L75.5072 14.024L76.0378 12.1466ZM78.7224 13.2391L79.6626 11.5296L78.7224 13.2391ZM80.7202 15.1121L79.0707 16.1539L79.0868 16.1794L79.1036 16.2044L80.7202 15.1121ZM80.4705 21.3865L78.8852 20.2493L78.8805 20.2559L80.4705 21.3865ZM77.4425 23.5717L76.7421 21.7507L77.4425 23.5717ZM72.4167 24.3521V22.4011C71.2043 22.4011 70.1475 22.2872 69.2344 22.0764L68.7957 23.9775L68.357 25.8785C69.6081 26.1672 70.9654 26.3031 72.4167 26.3031V24.3521ZM68.7957 23.9775L69.2344 22.0764C68.327 21.867 67.6023 21.5668 67.028 21.2041L65.9862 22.8537L64.9444 24.5032C65.9517 25.1395 67.1001 25.5885 68.357 25.8785L68.7957 23.9775ZM65.9862 22.8537L67.0585 21.2238C66.5116 20.864 66.1021 20.4284 65.8017 19.9096L64.1133 20.8871L62.4248 21.8646C63.0401 22.9273 63.8792 23.8029 64.9139 24.4836L65.9862 22.8537ZM64.1133 20.8871L65.8017 19.9096C65.5089 19.4038 65.3098 18.7767 65.2464 17.9845L63.3016 18.1401L61.3568 18.2956C61.46 19.5845 61.802 20.7888 62.4248 21.8646L64.1133 20.8871ZM63.3016 18.1401L63.9186 19.9909L68.3201 18.5238L67.7031 16.6729L67.0861 14.822L62.6847 16.2892L63.3016 18.1401ZM67.7031 16.6729L65.7571 16.8119C65.8407 17.983 66.1876 19.0901 66.8915 20.0286L68.4523 18.858L70.0131 17.6874C69.8429 17.4606 69.6904 17.1109 69.6491 16.5339L67.7031 16.6729ZM68.4523 18.858L66.8915 20.0286C67.5598 20.9197 68.4418 21.567 69.4758 21.9806L70.2004 20.1691L70.925 18.3576C70.5023 18.1886 70.2189 17.9618 70.0131 17.6874L68.4523 18.858ZM70.2004 20.1691L69.5377 22.0041C70.5286 22.362 71.5893 22.5259 72.6977 22.5259V20.5749V18.6239C71.9747 18.6239 71.3705 18.5173 70.863 18.3341L70.2004 20.1691ZM72.6977 20.5749V22.5259C73.7105 22.5259 74.6784 22.4075 75.539 22.1001L74.8828 20.2628L74.2266 18.4254C73.9218 18.5343 73.433 18.6239 72.6977 18.6239V20.5749ZM74.8828 20.2628L75.5747 22.0869C76.3498 21.793 77.1169 21.3636 77.6934 20.7047L76.2251 19.4199L74.7568 18.1352C74.7576 18.1343 74.7267 18.1696 74.6335 18.2281C74.5399 18.2869 74.3975 18.3602 74.1909 18.4386L74.8828 20.2628ZM76.2251 19.4199L77.688 20.7108C78.2507 20.073 78.6443 19.2554 78.6443 18.2961H76.6933H74.7423C74.7423 18.2657 74.7454 18.2334 74.752 18.2012C74.7584 18.1692 74.7672 18.1428 74.7753 18.1233C74.7917 18.0839 74.7992 18.0871 74.7622 18.1291L76.2251 19.4199ZM76.6933 18.2961H78.6443C78.6443 17.1676 78.1097 16.2296 77.2576 15.6017L76.1002 17.1724L74.9429 18.743C74.9435 18.7435 74.9273 18.7316 74.9028 18.7041C74.8776 18.6758 74.8475 18.6353 74.8196 18.5825C74.7585 18.4667 74.7423 18.3583 74.7423 18.2961H76.6933ZM76.1002 17.1724L77.3092 15.6411C76.6595 15.1282 75.8718 14.776 75.0428 14.5248L74.477 16.392L73.9112 18.2591C74.4557 18.4241 74.7502 18.5923 74.8913 18.7037L76.1002 17.1724ZM74.477 16.392L75.094 14.5411C74.3319 14.287 73.4665 14.0523 72.5057 13.8339L72.0734 15.7364L71.641 17.6389C72.5115 17.8368 73.2486 18.039 73.86 18.2428L74.477 16.392ZM72.0734 15.7364L72.5287 13.8393C71.5178 13.5967 70.5284 13.3342 69.5605 13.0518L69.0142 14.9248L68.4679 16.7978C69.4978 17.0982 70.5479 17.3767 71.618 17.6336L72.0734 15.7364ZM69.0142 14.9248L69.5605 13.0518C68.6888 12.7976 67.9241 12.4781 67.257 12.1017L66.2984 13.801L65.3398 15.5003C66.2958 16.0396 67.3418 16.4693 68.4679 16.7978L69.0142 14.9248ZM66.2984 13.801L67.2895 12.1205C66.7135 11.7808 66.2953 11.3784 65.9935 10.919L64.363 11.9905L62.7325 13.0619C63.388 14.0594 64.26 14.8639 65.3073 15.4816L66.2984 13.801ZM64.363 11.9905L66.0277 10.9731C65.8028 10.605 65.6272 10.0449 65.6272 9.18105H63.6762H61.7252C61.7252 10.5648 62.0075 11.8776 62.6982 13.0078L64.363 11.9905ZM63.6762 9.18105H65.6272C65.6272 8.25904 65.8554 7.55261 66.2506 6.97896L64.6439 5.87215L63.0373 4.76533C62.1422 6.06465 61.7252 7.56415 61.7252 9.18105H63.6762ZM64.6439 5.87215L66.2506 6.97896C66.6455 6.40579 67.266 5.89169 68.235 5.48795L67.4846 3.68702L66.7342 1.88609C65.2059 2.52289 63.9327 3.46554 63.0373 4.76533L64.6439 5.87215ZM67.4846 3.68702L68.2603 5.47718C69.1951 5.07209 70.4529 4.82641 72.1046 4.82641V2.8754V0.924397C70.0935 0.924397 68.2713 1.21979 66.7089 1.89687L67.4846 3.68702ZM72.1046 2.8754V4.82641C73.7383 4.82641 75.012 5.06244 75.9847 5.46108L76.7245 3.6558L77.4644 1.85053C75.8982 1.20863 74.0919 0.924397 72.1046 0.924397V2.8754ZM76.7245 3.6558L75.9847 5.46108C76.9826 5.87006 77.6472 6.39689 78.0856 6.99468L79.6589 5.84093L81.2322 4.68717C80.297 3.41201 79.0054 2.48208 77.4644 1.85053L76.7245 3.6558ZM79.6589 5.84093L78.0981 7.01153C78.5343 7.59325 78.7899 8.28506 78.8342 9.15526L80.7826 9.05619L82.7311 8.95711C82.6505 7.37164 82.1569 5.91995 81.2197 4.67033L79.6589 5.84093ZM80.7826 9.05619L80.2484 7.17976L75.7533 8.45962L76.2875 10.336L76.8218 12.2125L81.3169 10.9326L80.7826 9.05619ZM76.2875 10.336H78.2385C78.2385 9.50882 78.0956 8.69362 77.7515 7.93669L75.9754 8.74402L74.1992 9.55135C74.2714 9.7101 74.3365 9.95625 74.3365 10.336H76.2875ZM75.9754 8.74402L77.7811 8.00531C77.4816 7.2732 77.0264 6.62672 76.404 6.11421L75.1637 7.62025L73.9235 9.12629C74.0087 9.19647 74.0945 9.29918 74.1696 9.48274L75.9754 8.74402ZM75.1637 7.62025L76.4546 6.15731C75.8505 5.62431 75.1409 5.26814 74.3787 5.05474L73.8527 6.93349L73.3266 8.81224C73.605 8.89019 73.7694 8.99186 73.8729 9.08318L75.1637 7.62025ZM73.8527 6.93349L74.4473 5.07531C73.6981 4.83556 72.8985 4.73276 72.0734 4.73276V6.68376V8.63477C72.5801 8.63477 72.9667 8.69845 73.258 8.79168L73.8527 6.93349ZM72.0734 6.68376V4.73276C71.1386 4.73276 70.2422 4.8422 69.4273 5.11382L70.0443 6.96471L70.6613 8.81559C70.9702 8.71262 71.4265 8.63477 72.0734 8.63477V6.68376ZM70.0443 6.96471L69.4061 5.12103C68.6606 5.37909 67.9175 5.78422 67.3525 6.43612L68.8269 7.71389L70.3012 8.99167C70.2773 9.01925 70.3458 8.92492 70.6825 8.80838L70.0443 6.96471ZM68.8269 7.71389L67.3972 6.38633C66.7936 7.03633 66.4701 7.85315 66.4701 8.74402H68.4211H70.3721C70.3721 8.77347 70.3661 8.83314 70.3378 8.90503C70.3095 8.97673 70.274 9.02268 70.2566 9.04145L68.8269 7.71389ZM68.4211 8.74402H66.4701C66.4701 9.88051 66.9834 10.8415 67.8266 11.5161L69.0454 9.99267L70.2642 8.46919C70.2445 8.45345 70.2829 8.4796 70.3222 8.55826C70.3634 8.64067 70.3721 8.71357 70.3721 8.74402H68.4211ZM69.0454 9.99267L67.9114 11.5803C68.5701 12.0508 69.3595 12.3987 70.2085 12.6655L70.7935 10.8043L71.3785 8.94304C70.7707 8.75203 70.3948 8.55891 70.1794 8.40507L69.0454 9.99267ZM70.7935 10.8043L70.2713 12.6841C71.0514 12.9008 71.9006 13.1156 72.8176 13.3289L73.2596 11.4286L73.7015 9.52831C72.8289 9.32537 72.034 9.124 71.3157 8.92446L70.7935 10.8043ZM73.2596 11.4286L72.8599 13.3382C73.693 13.5126 74.5628 13.737 75.4697 14.0131L76.0378 12.1466L76.6059 10.2801C75.5982 9.97343 74.6159 9.7192 73.6593 9.51898L73.2596 11.4286ZM76.0378 12.1466L75.5072 14.024C76.3287 14.2562 77.0854 14.5654 77.7822 14.9486L78.7224 13.2391L79.6626 11.5296C78.6945 10.9972 77.6615 10.578 76.5684 10.2691L76.0378 12.1466ZM78.7224 13.2391L77.7822 14.9486C78.3302 15.2501 78.7503 15.6466 79.0707 16.1539L80.7202 15.1121L82.3698 14.0703C81.6912 12.996 80.7794 12.1439 79.6626 11.5296L78.7224 13.2391ZM80.7202 15.1121L79.1036 16.2044C79.3528 16.5731 79.5496 17.1423 79.5496 18.0464H81.5006H83.4516C83.4516 16.5781 83.1282 15.1911 82.3368 14.0198L80.7202 15.1121ZM81.5006 18.0464H79.5496C79.5496 18.9413 79.3154 19.6496 78.8852 20.2493L80.4705 21.3865L82.0557 22.5238C82.9991 21.2088 83.4516 19.6905 83.4516 18.0464H81.5006ZM80.4705 21.3865L78.8805 20.2559C78.4884 20.8072 77.8302 21.3322 76.7421 21.7507L77.4425 23.5717L78.1429 25.3926C79.7602 24.7706 81.1206 23.8388 82.0605 22.5172L80.4705 21.3865ZM77.4425 23.5717L76.7421 21.7507C75.6801 22.1592 74.2595 22.4011 72.4167 22.4011V24.3521V26.3031C74.5697 26.3031 76.4996 26.0247 78.1429 25.3926L77.4425 23.5717ZM82.8336 23.915H80.8826V25.866H82.8336V23.915ZM82.8336 3.31243V1.36142H80.8826V3.31243H82.8336ZM87.8594 3.31243H89.8104V1.36142H87.8594V3.31243ZM87.8594 12.3339H85.9084V15.3485L88.6585 14.1137L87.8594 12.3339ZM90.7001 10.617L89.4947 9.08288L90.7001 10.617ZM93.0101 8.36943L91.5207 7.10919L91.5112 7.12046L91.5018 7.13188L93.0101 8.36943ZM94.6957 5.87215L92.9675 4.96687L92.9633 4.97478L92.9593 4.98273L94.6957 5.87215ZM95.6947 3.31243V1.36142H94.1714L93.8019 2.83924L95.6947 3.31243ZM101.501 3.31243L103.389 3.8049L104.026 1.36142H101.501V3.31243ZM100.283 6.24674L101.975 7.21858L101.98 7.21093L101.984 7.20324L100.283 6.24674ZM98.2544 9.0874L99.7163 10.3794L99.7237 10.371L99.7309 10.3626L98.2544 9.0874ZM95.6947 11.491L94.5017 9.94724L94.4931 9.95389L94.4846 9.96064L95.6947 11.491ZM92.9476 13.1767L92.1553 11.3939L90.9966 11.9088V13.1767H92.9476ZM92.9476 13.6449H90.9966V15.596H92.9476V13.6449ZM95.4762 13.9571L94.9402 15.833L94.9471 15.835L94.954 15.8369L95.4762 13.9571ZM97.4428 14.9248L96.245 16.4648L96.2585 16.4753L96.2722 16.4856L97.4428 14.9248ZM98.9411 16.5793L97.2867 17.6133L97.3057 17.6437L97.3259 17.6735L98.9411 16.5793ZM100.065 18.9205L98.2183 19.55L98.2226 19.5626L98.2271 19.5752L100.065 18.9205ZM101.844 23.915V25.866H104.61L103.682 23.2603L101.844 23.915ZM96.1317 23.915L94.2541 24.4453L94.6554 25.866H96.1317V23.915ZM94.9767 19.8257L93.0944 20.3391L93.0967 20.3476L93.0991 20.356L94.9767 19.8257ZM93.9778 17.6718L92.4314 18.8614L92.4427 18.8761L92.4543 18.8906L93.9778 17.6718ZM92.3233 16.5168L91.6566 18.3504L91.6814 18.3594L91.7064 18.3677L92.3233 16.5168ZM87.8594 16.1422V14.1912H85.9084V16.1422H87.8594ZM87.8594 23.915V25.866H89.8104V23.915H87.8594ZM82.8336 23.915H84.7846V3.31243H82.8336H80.8826V23.915H82.8336ZM82.8336 3.31243V5.26343H87.8594V3.31243V1.36142H82.8336V3.31243ZM87.8594 3.31243H85.9084V12.3339H87.8594H89.8104V3.31243H87.8594ZM87.8594 12.3339L88.6585 14.1137C89.8224 13.5912 90.9058 12.9366 91.9055 12.1511L90.7001 10.617L89.4947 9.08288C88.7463 9.67094 87.9359 10.1609 87.0603 10.554L87.8594 12.3339ZM90.7001 10.617L91.9055 12.1511C92.8844 11.3819 93.7574 10.5344 94.5183 9.60699L93.0101 8.36943L91.5018 7.13188C90.9309 7.82771 90.2638 8.47857 89.4947 9.08288L90.7001 10.617ZM93.0101 8.36943L94.4994 9.62967C95.2721 8.71647 95.9203 7.76093 96.4322 6.76156L94.6957 5.87215L92.9593 4.98273C92.5971 5.68984 92.1215 6.39915 91.5207 7.10919L93.0101 8.36943ZM94.6957 5.87215L96.424 6.77743C96.9431 5.78636 97.3367 4.7885 97.5874 3.78562L95.6947 3.31243L93.8019 2.83924C93.6364 3.50121 93.364 4.20983 92.9675 4.96687L94.6957 5.87215ZM95.6947 3.31243V5.26343H101.501V3.31243V1.36142H95.6947V3.31243ZM101.501 3.31243L99.613 2.81995C99.4116 3.59196 99.0754 4.41481 98.583 5.29023L100.283 6.24674L101.984 7.20324C102.615 6.08084 103.091 4.94748 103.389 3.8049L101.501 3.31243ZM100.283 6.24674L98.5917 5.27489C98.096 6.13779 97.4932 6.98381 96.7778 7.81219L98.2544 9.0874L99.7309 10.3626C100.597 9.35965 101.347 8.3119 101.975 7.21858L100.283 6.24674ZM98.2544 9.0874L96.7924 7.79545C96.0805 8.60101 95.3169 9.31732 94.5017 9.94724L95.6947 11.491L96.8876 13.0348C97.9037 12.2496 98.8466 11.3635 99.7163 10.3794L98.2544 9.0874ZM95.6947 11.491L94.4846 9.96064C93.7036 10.5782 92.9268 11.051 92.1553 11.3939L92.9476 13.1767L93.74 14.9596C94.8415 14.47 95.896 13.819 96.9047 13.0214L95.6947 11.491ZM92.9476 13.1767H90.9966V13.6449H92.9476H94.8987V13.1767H92.9476ZM92.9476 13.6449V15.596C93.769 15.596 94.4249 15.6858 94.9402 15.833L95.4762 13.9571L96.0121 12.0812C95.0706 11.8122 94.0409 11.6939 92.9476 11.6939V13.6449ZM95.4762 13.9571L94.954 15.8369C95.4807 15.9833 95.9018 16.1979 96.245 16.4648L97.4428 14.9248L98.6406 13.3848C97.8599 12.7776 96.97 12.3472 95.9983 12.0773L95.4762 13.9571ZM97.4428 14.9248L96.2722 16.4856C96.6479 16.7674 96.9879 17.1352 97.2867 17.6133L98.9411 16.5793L100.596 15.5452C100.062 14.6914 99.403 13.9562 98.6134 13.364L97.4428 14.9248ZM98.9411 16.5793L97.3259 17.6735C97.6453 18.145 97.9493 18.761 98.2183 19.55L100.065 18.9205L101.912 18.2909C101.556 17.2486 101.111 16.3038 100.556 15.485L98.9411 16.5793ZM100.065 18.9205L98.2271 19.5752L100.006 24.5698L101.844 23.915L103.682 23.2603L101.903 18.2657L100.065 18.9205ZM101.844 23.915V21.964H96.1317V23.915V25.866H101.844V23.915ZM96.1317 23.915L98.0092 23.3847L96.8542 19.2954L94.9767 19.8257L93.0991 20.356L94.2541 24.4453L96.1317 23.915ZM94.9767 19.8257L96.8589 19.3124C96.5666 18.2406 96.1389 17.2501 95.5013 16.453L93.9778 17.6718L92.4543 18.8906C92.6491 19.1341 92.8873 19.5796 93.0944 20.3391L94.9767 19.8257ZM93.9778 17.6718L95.5242 16.4823C94.8563 15.614 93.9723 15.01 92.9403 14.6659L92.3233 16.5168L91.7064 18.3677C92.0478 18.4815 92.2668 18.6475 92.4314 18.8614L93.9778 17.6718ZM92.3233 16.5168L92.9901 14.6833C92.0131 14.328 90.8806 14.1912 89.67 14.1912V16.1422V18.0932C90.6236 18.0932 91.26 18.2062 91.6566 18.3504L92.3233 16.5168ZM89.67 16.1422V14.1912H87.8594V16.1422V18.0932H89.67V16.1422ZM87.8594 16.1422H85.9084V23.915H87.8594H89.8104V16.1422H87.8594ZM87.8594 23.915V21.964H82.8336V23.915V25.866H87.8594V23.915ZM102.649 23.915H100.698V25.866H102.649V23.915ZM102.649 3.31243V1.36142H100.698V3.31243H102.649ZM107.706 3.31243H109.657V1.36142H107.706V3.31243ZM107.706 23.915V25.866H109.657V23.915H107.706ZM106.301 23.915H104.35V25.866H106.301V23.915ZM106.301 19.8569V17.9059H104.35V19.8569H106.301ZM119.006 19.8569H120.957V17.9059H119.006V19.8569ZM119.006 23.915V25.866H120.957V23.915H119.006ZM106.301 15.3618H104.35V17.3128H106.301V15.3618ZM106.301 11.7096V9.75855H104.35V11.7096H106.301ZM117.414 11.7096H119.365V9.75855H117.414V11.7096ZM117.414 15.3618V17.3128H119.365V15.3618H117.414ZM106.301 7.3393H104.35V9.29031H106.301V7.3393ZM106.301 3.31243V1.36142H104.35V3.31243H106.301ZM118.912 3.31243H120.863V1.36142H118.912V3.31243ZM118.912 7.3393V9.29031H120.863V7.3393H118.912ZM102.649 23.915H104.6V3.31243H102.649H100.698V23.915H102.649ZM102.649 3.31243V5.26343H107.706V3.31243V1.36142H102.649V3.31243ZM107.706 3.31243H105.755V23.915H107.706H109.657V3.31243H107.706ZM107.706 23.915V21.964H102.649V23.915V25.866H107.706V23.915ZM106.301 23.915H108.252V19.8569H106.301H104.35V23.915H106.301ZM106.301 19.8569V21.808H119.006V19.8569V17.9059H106.301V19.8569ZM119.006 19.8569H117.055V23.915H119.006H120.957V19.8569H119.006ZM119.006 23.915V21.964H106.301V23.915V25.866H119.006V23.915ZM106.301 15.3618H108.252V11.7096H106.301H104.35V15.3618H106.301ZM106.301 11.7096V13.6606H117.414V11.7096V9.75855H106.301V11.7096ZM117.414 11.7096H115.463V15.3618H117.414H119.365V11.7096H117.414ZM117.414 15.3618V13.4108H106.301V15.3618V17.3128H117.414V15.3618ZM106.301 7.3393H108.252V3.31243H106.301H104.35V7.3393H106.301ZM106.301 3.31243V5.26343H118.912V3.31243V1.36142H106.301V3.31243ZM118.912 3.31243H116.961V7.3393H118.912H120.863V3.31243H118.912ZM118.912 7.3393V5.3883H106.301V7.3393V9.29031H118.912V7.3393ZM120.421 23.915H118.47V25.866H120.421V23.915ZM120.421 3.31243V1.36142H118.47V3.31243H120.421ZM132.314 3.59337L131.932 5.50649L131.952 5.51059L131.973 5.51426L132.314 3.59337ZM134.78 4.37377L133.908 6.11881L133.938 6.13402L133.969 6.14816L134.78 4.37377ZM136.622 5.62242L135.243 7.00199L135.257 7.01666L135.272 7.03102L136.622 5.62242ZM137.746 7.30809L135.926 8.01238L135.93 8.02255L135.934 8.03267L137.746 7.30809ZM137.777 11.3662L135.961 10.6528V10.6528L137.777 11.3662ZM136.716 12.8958L135.4 11.455L135.384 11.4696L135.369 11.4845L136.716 12.8958ZM134.968 13.9571L135.664 15.7794L134.968 13.9571ZM132.502 14.5502L132.244 12.6163L130.551 12.8421V14.5502H132.502ZM132.502 15.0185H130.551V16.7749L132.297 16.9587L132.502 15.0185ZM135.249 15.8301L134.191 17.4695L134.221 17.4891L134.253 17.5077L135.249 15.8301ZM136.778 17.4221L138.501 16.5068V16.5068L136.778 17.4221ZM137.715 19.8257L135.84 20.3672L135.841 20.3693L137.715 19.8257ZM138.901 23.915V25.866H141.498L140.775 23.3715L138.901 23.915ZM133.313 23.915L131.416 24.3698L131.775 25.866H133.313V23.915ZM132.408 20.1379L130.505 20.5662L130.507 20.5794L130.511 20.5926L132.408 20.1379ZM131.628 18.2025L130.016 19.3016L130.032 19.3261L130.05 19.35L131.628 18.2025ZM130.41 17.266L129.725 19.0928L129.759 19.1055L129.793 19.1169L130.41 17.266ZM125.447 16.9851V15.0341H123.496V16.9851H125.447ZM125.447 23.915V25.866H127.398V23.915H125.447ZM125.447 13.2704H123.496V15.2214H125.447V13.2704ZM131.815 12.5212L132.94 14.1151V14.1151L131.815 12.5212ZM131.908 7.86998L130.714 9.41268V9.41268L131.908 7.86998ZM125.447 7.12079V5.16978H123.496V7.12079H125.447ZM120.421 23.915H122.372V3.31243H120.421H118.47V23.915H120.421ZM120.421 3.31243V5.26343H129.193V3.31243V1.36142H120.421V3.31243ZM129.193 3.31243V5.26343C130.233 5.26343 131.143 5.34877 131.932 5.50649L132.314 3.59337L132.697 1.68025C131.613 1.46339 130.441 1.36142 129.193 1.36142V3.31243ZM132.314 3.59337L131.973 5.51426C132.761 5.65434 133.398 5.86377 133.908 6.11881L134.78 4.37377L135.653 2.62874C134.748 2.17621 133.741 1.86537 132.656 1.67249L132.314 3.59337ZM134.78 4.37377L133.969 6.14816C134.514 6.39726 134.928 6.68742 135.243 7.00199L136.622 5.62242L138.002 4.24285C137.317 3.5585 136.503 3.01623 135.592 2.59938L134.78 4.37377ZM136.622 5.62242L135.272 7.03102C135.565 7.31209 135.78 7.63355 135.926 8.01238L137.746 7.30809L139.565 6.60379C139.213 5.69235 138.678 4.89004 137.972 4.21381L136.622 5.62242ZM137.746 7.30809L135.934 8.03267C136.08 8.39558 136.169 8.84209 136.169 9.39956H138.12H140.071C140.071 8.41704 139.912 7.46923 139.557 6.5835L137.746 7.30809ZM138.12 9.39956H136.169C136.169 9.92309 136.088 10.3313 135.961 10.6528L137.777 11.3662L139.593 12.0796C139.925 11.2357 140.071 10.3328 140.071 9.39956H138.12ZM137.777 11.3662L135.961 10.6528C135.845 10.948 135.667 11.2117 135.4 11.455L136.716 12.8958L138.031 14.3366C138.722 13.7058 139.251 12.9497 139.593 12.0796L137.777 11.3662ZM136.716 12.8958L135.369 11.4845C135.131 11.7112 134.783 11.9389 134.271 12.1348L134.968 13.9571L135.664 15.7794C136.567 15.4343 137.385 14.9544 138.063 14.307L136.716 12.8958ZM134.968 13.9571L134.271 12.1348C133.735 12.3399 133.065 12.5068 132.244 12.6163L132.502 14.5502L132.759 16.4841C133.811 16.3439 134.786 16.1154 135.664 15.7794L134.968 13.9571ZM132.502 14.5502H130.551V15.0185H132.502H134.453V14.5502H132.502ZM132.502 15.0185L132.297 16.9587C133.332 17.0676 133.906 17.2858 134.191 17.4695L135.249 15.8301L136.306 14.1907C135.301 13.5419 134.044 13.219 132.706 13.0782L132.502 15.0185ZM135.249 15.8301L134.253 17.5077C134.62 17.7256 134.874 17.9963 135.055 18.3374L136.778 17.4221L138.501 16.5068C137.975 15.516 137.209 14.7253 136.245 14.1525L135.249 15.8301ZM136.778 17.4221L135.055 18.3374C135.331 18.8556 135.597 19.5248 135.84 20.3672L137.715 19.8257L139.589 19.2843C139.291 18.2537 138.933 17.3204 138.501 16.5068L136.778 17.4221ZM137.715 19.8257L135.841 20.3693L137.027 24.4586L138.901 23.915L140.775 23.3715L139.588 19.2822L137.715 19.8257ZM138.901 23.915V21.964H133.313V23.915V25.866H138.901V23.915ZM133.313 23.915L135.21 23.4603L134.305 19.6832L132.408 20.1379L130.511 20.5926L131.416 24.3698L133.313 23.915ZM132.408 20.1379L134.311 19.7096C134.092 18.7369 133.753 17.8085 133.205 17.055L131.628 18.2025L130.05 19.35C130.168 19.5122 130.349 19.874 130.505 20.5662L132.408 20.1379ZM131.628 18.2025L133.24 17.1034C132.7 16.3127 131.954 15.724 131.027 15.4151L130.41 17.266L129.793 19.1169C129.865 19.141 129.93 19.1766 130.016 19.3016L131.628 18.2025ZM130.41 17.266L131.095 15.4392C130.308 15.1439 129.433 15.0341 128.537 15.0341V16.9851V18.9361C129.14 18.9361 129.514 19.0136 129.725 19.0928L130.41 17.266ZM128.537 16.9851V15.0341H125.447V16.9851V18.9361H128.537V16.9851ZM125.447 16.9851H123.496V23.915H125.447H127.398V16.9851H125.447ZM125.447 23.915V21.964H120.421V23.915V25.866H125.447V23.915ZM125.447 13.2704V15.2214H128.849V13.2704V11.3194H125.447V13.2704ZM128.849 13.2704V15.2214C130.343 15.2214 131.782 14.9322 132.94 14.1151L131.815 12.5212L130.69 10.9273C130.432 11.1091 129.895 11.3194 128.849 11.3194V13.2704ZM131.815 12.5212L132.94 14.1151C134.285 13.166 134.827 11.7139 134.827 10.18H132.876H130.925C130.925 10.7687 130.76 10.8775 130.69 10.9273L131.815 12.5212ZM132.876 10.18H134.827C134.827 8.71789 134.353 7.29497 133.103 6.32727L131.908 7.86998L130.714 9.41268C130.754 9.44389 130.925 9.56097 130.925 10.18H132.876ZM131.908 7.86998L133.103 6.32727C131.963 5.44512 130.474 5.16978 128.974 5.16978V7.12079V9.07179C130.096 9.07179 130.563 9.29591 130.714 9.41268L131.908 7.86998ZM128.974 7.12079V5.16978H125.447V7.12079V9.07179H128.974V7.12079ZM125.447 7.12079H123.496V13.2704H125.447H127.398V7.12079H125.447ZM144.519 23.9775L144.08 25.8785L144.519 23.9775ZM141.71 22.8537L140.637 24.4836L140.652 24.4936L140.668 24.5032L141.71 22.8537ZM139.837 20.8871L141.525 19.9096L139.837 20.8871ZM139.025 18.1401L138.408 16.2892L136.958 16.7724L137.08 18.2956L139.025 18.1401ZM143.426 16.6729L145.373 16.5339L145.193 14.0274L142.81 14.822L143.426 16.6729ZM144.176 18.858L142.615 20.0286L144.176 18.858ZM145.924 20.1691L145.199 21.9806L145.23 21.9929L145.261 22.0041L145.924 20.1691ZM150.606 20.2628L151.262 22.1001L151.28 22.0937L151.298 22.0869L150.606 20.2628ZM151.948 19.4199L150.486 18.1291L150.48 18.1352L151.948 19.4199ZM151.824 17.1724L150.615 18.7037L150.64 18.7238L150.666 18.743L151.824 17.1724ZM150.2 16.392L149.583 18.2428L149.609 18.2513L149.635 18.2591L150.2 16.392ZM147.797 15.7364L147.341 17.6336L147.353 17.6363L147.364 17.6389L147.797 15.7364ZM144.738 14.9248L145.284 13.0518L144.738 14.9248ZM142.022 13.801L141.031 15.4816L141.047 15.4911L141.063 15.5003L142.022 13.801ZM140.086 11.9905L138.422 13.0078L138.438 13.0352L138.456 13.0619L140.086 11.9905ZM140.367 5.87215L141.974 6.97896V6.97896L140.367 5.87215ZM143.208 3.68702L143.958 5.48795L143.971 5.48265L143.984 5.47718L143.208 3.68702ZM152.448 3.6558L153.188 1.85053V1.85053L152.448 3.6558ZM155.382 5.84093L153.809 6.99468L153.815 7.00314L153.821 7.01153L155.382 5.84093ZM156.506 9.05619L157.04 10.9326L158.533 10.5075L158.455 8.95711L156.506 9.05619ZM152.011 10.336H150.06V12.9201L152.545 12.2125L152.011 10.336ZM151.699 8.74402L149.893 9.48274L149.907 9.51733L149.923 9.55135L151.699 8.74402ZM150.887 7.62025L149.596 9.08318L149.621 9.10517L149.647 9.12629L150.887 7.62025ZM149.576 6.93349L148.981 8.79168L149.016 8.80259L149.05 8.81224L149.576 6.93349ZM145.768 6.96471L145.151 5.11382L145.14 5.11737L145.129 5.12103L145.768 6.96471ZM144.55 7.71389L145.98 9.04145L146.003 9.01694L146.025 8.99167L144.55 7.71389ZM144.769 9.99267L143.55 11.5161L143.592 11.5494L143.635 11.5803L144.769 9.99267ZM146.517 10.8043L145.932 12.6655L145.963 12.6754L145.995 12.6841L146.517 10.8043ZM148.983 11.4286L148.541 13.3289L148.562 13.3338L148.583 13.3382L148.983 11.4286ZM151.761 12.1466L151.193 14.0131L151.212 14.0187L151.231 14.024L151.761 12.1466ZM154.446 13.2391L155.386 11.5296L154.446 13.2391ZM156.444 15.1121L154.794 16.1539L154.81 16.1794L154.827 16.2044L156.444 15.1121ZM156.194 21.3865L154.609 20.2493L154.604 20.2559L156.194 21.3865ZM153.166 23.5717L152.466 21.7507L153.166 23.5717ZM148.14 24.3521V22.4011C146.928 22.4011 145.871 22.2872 144.958 22.0764L144.519 23.9775L144.08 25.8785C145.331 26.1672 146.689 26.3031 148.14 26.3031V24.3521ZM144.519 23.9775L144.958 22.0764C144.05 21.867 143.326 21.5668 142.751 21.2041L141.71 22.8537L140.668 24.5032C141.675 25.1395 142.823 25.5885 144.08 25.8785L144.519 23.9775ZM141.71 22.8537L142.782 21.2238C142.235 20.864 141.825 20.4284 141.525 19.9096L139.837 20.8871L138.148 21.8646C138.763 22.9273 139.603 23.8029 140.637 24.4836L141.71 22.8537ZM139.837 20.8871L141.525 19.9096C141.232 19.4038 141.033 18.7767 140.97 17.9845L139.025 18.1401L137.08 18.2956C137.183 19.5845 137.525 20.7888 138.148 21.8646L139.837 20.8871ZM139.025 18.1401L139.642 19.9909L144.043 18.5238L143.426 16.6729L142.81 14.822L138.408 16.2892L139.025 18.1401ZM143.426 16.6729L141.48 16.8119C141.564 17.983 141.911 19.0901 142.615 20.0286L144.176 18.858L145.736 17.6874C145.566 17.4606 145.414 17.1109 145.373 16.5339L143.426 16.6729ZM144.176 18.858L142.615 20.0286C143.283 20.9197 144.165 21.567 145.199 21.9806L145.924 20.1691L146.648 18.3576C146.226 18.1886 145.942 17.9618 145.736 17.6874L144.176 18.858ZM145.924 20.1691L145.261 22.0041C146.252 22.362 147.313 22.5259 148.421 22.5259V20.5749V18.6239C147.698 18.6239 147.094 18.5173 146.586 18.3341L145.924 20.1691ZM148.421 20.5749V22.5259C149.434 22.5259 150.402 22.4075 151.262 22.1001L150.606 20.2628L149.95 18.4254C149.645 18.5343 149.156 18.6239 148.421 18.6239V20.5749ZM150.606 20.2628L151.298 22.0869C152.073 21.793 152.84 21.3636 153.417 20.7047L151.948 19.4199L150.48 18.1352C150.481 18.1343 150.45 18.1696 150.357 18.2281C150.263 18.2869 150.121 18.3602 149.914 18.4386L150.606 20.2628ZM151.948 19.4199L153.411 20.7108C153.974 20.073 154.368 19.2554 154.368 18.2961H152.417H150.466C150.466 18.2657 150.469 18.2334 150.475 18.2012C150.482 18.1692 150.491 18.1428 150.499 18.1233C150.515 18.0839 150.523 18.0871 150.486 18.1291L151.948 19.4199ZM152.417 18.2961H154.368C154.368 17.1676 153.833 16.2296 152.981 15.6017L151.824 17.1724L150.666 18.743C150.667 18.7435 150.651 18.7316 150.626 18.7041C150.601 18.6758 150.571 18.6353 150.543 18.5825C150.482 18.4667 150.466 18.3583 150.466 18.2961H152.417ZM151.824 17.1724L153.033 15.6411C152.383 15.1282 151.595 14.776 150.766 14.5248L150.2 16.392L149.635 18.2591C150.179 18.4241 150.474 18.5923 150.615 18.7037L151.824 17.1724ZM150.2 16.392L150.817 14.5411C150.055 14.287 149.19 14.0523 148.229 13.8339L147.797 15.7364L147.364 17.6389C148.235 17.8368 148.972 18.039 149.583 18.2428L150.2 16.392ZM147.797 15.7364L148.252 13.8393C147.241 13.5967 146.252 13.3342 145.284 13.0518L144.738 14.9248L144.191 16.7978C145.221 17.0982 146.271 17.3767 147.341 17.6336L147.797 15.7364ZM144.738 14.9248L145.284 13.0518C144.412 12.7976 143.648 12.4781 142.98 12.1017L142.022 13.801L141.063 15.5003C142.019 16.0396 143.065 16.4693 144.191 16.7978L144.738 14.9248ZM142.022 13.801L143.013 12.1205C142.437 11.7808 142.019 11.3784 141.717 10.919L140.086 11.9905L138.456 13.0619C139.111 14.0594 139.983 14.8639 141.031 15.4816L142.022 13.801ZM140.086 11.9905L141.751 10.9731C141.526 10.605 141.351 10.0449 141.351 9.18105H139.4H137.449C137.449 10.5648 137.731 11.8776 138.422 13.0078L140.086 11.9905ZM139.4 9.18105H141.351C141.351 8.25904 141.579 7.55261 141.974 6.97896L140.367 5.87215L138.761 4.76533C137.866 6.06465 137.449 7.56415 137.449 9.18105H139.4ZM140.367 5.87215L141.974 6.97896C142.369 6.40579 142.989 5.89169 143.958 5.48795L143.208 3.68702L142.458 1.88609C140.929 2.52289 139.656 3.46554 138.761 4.76533L140.367 5.87215ZM143.208 3.68702L143.984 5.47718C144.919 5.07209 146.176 4.82641 147.828 4.82641V2.8754V0.924397C145.817 0.924397 143.995 1.21979 142.432 1.89687L143.208 3.68702ZM147.828 2.8754V4.82641C149.462 4.82641 150.735 5.06244 151.708 5.46108L152.448 3.6558L153.188 1.85053C151.622 1.20863 149.815 0.924397 147.828 0.924397V2.8754ZM152.448 3.6558L151.708 5.46108C152.706 5.87006 153.371 6.39689 153.809 6.99468L155.382 5.84093L156.956 4.68717C156.02 3.41201 154.729 2.48208 153.188 1.85053L152.448 3.6558ZM155.382 5.84093L153.821 7.01153C154.258 7.59325 154.513 8.28506 154.558 9.15526L156.506 9.05619L158.455 8.95711C158.374 7.37164 157.88 5.91995 156.943 4.67033L155.382 5.84093ZM156.506 9.05619L155.972 7.17976L151.477 8.45962L152.011 10.336L152.545 12.2125L157.04 10.9326L156.506 9.05619ZM152.011 10.336H153.962C153.962 9.50882 153.819 8.69362 153.475 7.93669L151.699 8.74402L149.923 9.55135C149.995 9.7101 150.06 9.95625 150.06 10.336H152.011ZM151.699 8.74402L153.504 8.00531C153.205 7.2732 152.75 6.62672 152.127 6.11421L150.887 7.62025L149.647 9.12629C149.732 9.19647 149.818 9.29918 149.893 9.48274L151.699 8.74402ZM150.887 7.62025L152.178 6.15731C151.574 5.62431 150.864 5.26814 150.102 5.05474L149.576 6.93349L149.05 8.81224C149.328 8.89019 149.493 8.99186 149.596 9.08318L150.887 7.62025ZM149.576 6.93349L150.171 5.07531C149.421 4.83556 148.622 4.73276 147.797 4.73276V6.68376V8.63477C148.303 8.63477 148.69 8.69845 148.981 8.79168L149.576 6.93349ZM147.797 6.68376V4.73276C146.862 4.73276 145.966 4.8422 145.151 5.11382L145.768 6.96471L146.385 8.81559C146.694 8.71262 147.15 8.63477 147.797 8.63477V6.68376ZM145.768 6.96471L145.129 5.12103C144.384 5.37909 143.641 5.78422 143.076 6.43612L144.55 7.71389L146.025 8.99167C146.001 9.01925 146.069 8.92492 146.406 8.80838L145.768 6.96471ZM144.55 7.71389L143.121 6.38633C142.517 7.03633 142.193 7.85315 142.193 8.74402H144.144H146.095C146.095 8.77347 146.089 8.83314 146.061 8.90503C146.033 8.97673 145.997 9.02268 145.98 9.04145L144.55 7.71389ZM144.144 8.74402H142.193C142.193 9.88051 142.707 10.8415 143.55 11.5161L144.769 9.99267L145.988 8.46919C145.968 8.45345 146.006 8.4796 146.046 8.55826C146.087 8.64067 146.095 8.71357 146.095 8.74402H144.144ZM144.769 9.99267L143.635 11.5803C144.293 12.0508 145.083 12.3987 145.932 12.6655L146.517 10.8043L147.102 8.94304C146.494 8.75203 146.118 8.55891 145.903 8.40507L144.769 9.99267ZM146.517 10.8043L145.995 12.6841C146.775 12.9008 147.624 13.1156 148.541 13.3289L148.983 11.4286L149.425 9.52831C148.552 9.32537 147.757 9.124 147.039 8.92446L146.517 10.8043ZM148.983 11.4286L148.583 13.3382C149.416 13.5126 150.286 13.737 151.193 14.0131L151.761 12.1466L152.329 10.2801C151.322 9.97343 150.339 9.7192 149.383 9.51898L148.983 11.4286ZM151.761 12.1466L151.231 14.024C152.052 14.2562 152.809 14.5654 153.506 14.9486L154.446 13.2391L155.386 11.5296C154.418 10.9972 153.385 10.578 152.292 10.2691L151.761 12.1466ZM154.446 13.2391L153.506 14.9486C154.054 15.2501 154.474 15.6466 154.794 16.1539L156.444 15.1121L158.093 14.0703C157.415 12.996 156.503 12.1439 155.386 11.5296L154.446 13.2391ZM156.444 15.1121L154.827 16.2044C155.076 16.5731 155.273 17.1423 155.273 18.0464H157.224H159.175C159.175 16.5781 158.852 15.1911 158.06 14.0198L156.444 15.1121ZM157.224 18.0464H155.273C155.273 18.9413 155.039 19.6496 154.609 20.2493L156.194 21.3865L157.779 22.5238C158.722 21.2088 159.175 19.6905 159.175 18.0464H157.224ZM156.194 21.3865L154.604 20.2559C154.212 20.8072 153.554 21.3322 152.466 21.7507L153.166 23.5717L153.866 25.3926C155.484 24.7706 156.844 23.8388 157.784 22.5172L156.194 21.3865ZM153.166 23.5717L152.466 21.7507C151.403 22.1592 149.983 22.4011 148.14 22.4011V24.3521V26.3031C150.293 26.3031 152.223 26.0247 153.866 25.3926L153.166 23.5717ZM168.863 23.6965L168.237 25.5444L168.863 23.6965ZM165.554 21.6987L164.175 23.0783L164.183 23.0862L164.191 23.094L165.554 21.6987ZM163.494 18.421L161.652 19.0642L161.658 19.082L161.665 19.0996L163.494 18.421ZM163.525 9.11862L161.686 8.4678V8.4678L163.525 9.11862ZM165.586 5.68485L164.191 4.32087L164.183 4.32888L164.175 4.33698L165.586 5.68485ZM168.801 3.59337L169.482 5.42142L169.496 5.41638L169.509 5.41114L168.801 3.59337ZM176.137 3.31243L175.58 5.18227L175.59 5.18539L176.137 3.31243ZM178.727 4.6235L177.509 6.14698L177.522 6.15775L177.536 6.16827L178.727 4.6235ZM180.413 6.68376L178.659 7.53824L178.673 7.56555L178.687 7.59243L180.413 6.68376ZM181.069 9.39956L181.586 11.2807L183.05 10.8778L183.019 9.35975L181.069 9.39956ZM176.417 10.6794H174.466V13.2398L176.935 12.5605L176.417 10.6794ZM175.856 8.58794L174.223 9.65563L174.237 9.67724L174.251 9.69848L175.856 8.58794ZM174.482 7.37052L173.557 9.08832L173.596 9.10924L173.636 9.12838L174.482 7.37052ZM171.08 7.27687L171.78 9.09783L171.798 9.09093L171.816 9.08368L171.08 7.27687ZM169.581 8.36943L171.019 9.68777L171.033 9.67318L171.046 9.65832L169.581 8.36943ZM168.489 10.3673L170.344 10.9703L168.489 10.3673ZM168.77 17.4221L166.996 18.235V18.235L168.77 17.4221ZM170.674 19.6384L169.683 21.319L169.699 21.3285L169.715 21.3377L170.674 19.6384ZM175.856 19.6384L177.061 21.1726L177.068 21.167L175.856 19.6384ZM177.135 17.8591L175.296 17.2098L177.135 17.8591ZM177.541 15.7052L177.844 13.7779L175.654 13.4338L175.591 15.6495L177.541 15.7052ZM181.912 16.392L183.862 16.4281L183.894 14.7285L182.214 14.4646L181.912 16.392ZM181.412 19.5448L183.271 20.138L181.412 19.5448ZM179.914 22.1045L178.494 20.7661L178.493 20.7674L179.914 22.1045ZM177.26 23.759L176.602 21.9224L177.26 23.759ZM173.233 24.3521V22.4011C171.783 22.4011 170.543 22.2057 169.489 21.8486L168.863 23.6965L168.237 25.5444C169.764 26.0614 171.437 26.3031 173.233 26.3031V24.3521ZM168.863 23.6965L169.489 21.8486C168.457 21.4992 167.611 20.9811 166.918 20.3034L165.554 21.6987L164.191 23.094C165.329 24.206 166.688 25.0198 168.237 25.5444L168.863 23.6965ZM165.554 21.6987L166.934 20.3191C166.254 19.6397 165.713 18.7927 165.323 17.7424L163.494 18.421L161.665 19.0996C162.233 20.6298 163.064 21.968 164.175 23.0783L165.554 21.6987ZM163.494 18.421L165.336 17.7778C164.966 16.7191 164.758 15.4155 164.758 13.8322H162.807H160.856C160.856 15.7452 161.106 17.5008 161.652 19.0642L163.494 18.421ZM162.807 13.8322H164.758C164.758 12.2116 164.976 10.8687 165.365 9.76943L163.525 9.11862L161.686 8.4678C161.118 10.0739 160.856 11.8734 160.856 13.8322H162.807ZM163.525 9.11862L165.365 9.76943C165.761 8.64857 166.311 7.74921 166.996 7.03271L165.586 5.68485L164.175 4.33698C163.07 5.49345 162.247 6.88327 161.686 8.4678L163.525 9.11862ZM165.586 5.68485L166.98 7.04883C167.695 6.31775 168.523 5.779 169.482 5.42142L168.801 3.59337L168.119 1.76532C166.622 2.32342 165.307 3.17898 164.191 4.32087L165.586 5.68485ZM168.801 3.59337L169.509 5.41114C170.483 5.03176 171.601 4.82641 172.89 4.82641V2.8754V0.924397C171.182 0.924397 169.575 1.19769 168.092 1.7756L168.801 3.59337ZM172.89 2.8754V4.82641C173.918 4.82641 174.809 4.95264 175.58 5.18224L176.137 3.31243L176.694 1.44261C175.508 1.08952 174.235 0.924397 172.89 0.924397V2.8754ZM176.137 3.31243L175.59 5.18539C176.373 5.41357 177.001 5.74104 177.509 6.14698L178.727 4.6235L179.946 3.10002C178.997 2.34057 177.898 1.79398 176.683 1.43946L176.137 3.31243ZM178.727 4.6235L177.536 6.16827C178.031 6.55008 178.398 7.00224 178.659 7.53824L180.413 6.68376L182.167 5.82928C181.637 4.74205 180.881 3.8207 179.919 3.07873L178.727 4.6235ZM180.413 6.68376L178.687 7.59243C178.943 8.0793 179.103 8.6797 179.118 9.43937L181.069 9.39956L183.019 9.35975C182.993 8.07997 182.716 6.86984 182.14 5.77509L180.413 6.68376ZM181.069 9.39956L180.551 7.51847L175.9 8.79833L176.417 10.6794L176.935 12.5605L181.586 11.2807L181.069 9.39956ZM176.417 10.6794H178.368C178.368 9.54626 178.119 8.42925 177.46 7.47741L175.856 8.58794L174.251 9.69848C174.342 9.8288 174.466 10.1061 174.466 10.6794H176.417ZM175.856 8.58794L177.489 7.52026C176.948 6.69321 176.223 6.04315 175.328 5.61266L174.482 7.37052L173.636 9.12838C173.865 9.23896 174.056 9.40052 174.223 9.65563L175.856 8.58794ZM174.482 7.37052L175.407 5.65271C174.567 5.2006 173.654 4.98249 172.703 4.98249V6.93349V8.8845C173.042 8.8845 173.315 8.95774 173.557 9.08832L174.482 7.37052ZM172.703 6.93349V4.98249C171.892 4.98249 171.101 5.16152 170.343 5.47006L171.08 7.27687L171.816 9.08368C172.182 8.93438 172.473 8.8845 172.703 8.8845V6.93349ZM171.08 7.27687L170.379 5.45591C169.492 5.79718 168.742 6.36977 168.117 7.08054L169.581 8.36943L171.046 9.65832C171.336 9.32855 171.585 9.17277 171.78 9.09783L171.08 7.27687ZM169.581 8.36943L168.143 7.05109C167.45 7.80717 166.966 8.7407 166.633 9.76423L168.489 10.3673L170.344 10.9703C170.553 10.329 170.797 9.93061 171.019 9.68777L169.581 8.36943ZM168.489 10.3673L166.633 9.76423C166.279 10.855 166.132 12.1152 166.132 13.4889H168.083H170.034C170.034 12.3652 170.158 11.5444 170.344 10.9703L168.489 10.3673ZM168.083 13.4889H166.132C166.132 15.2701 166.379 16.8891 166.996 18.235L168.77 17.4221L170.543 16.6092C170.244 15.9572 170.034 14.9542 170.034 13.4889H168.083ZM168.77 17.4221L166.996 18.235C167.591 19.5343 168.473 20.6058 169.683 21.319L170.674 19.6384L171.665 17.9579C171.251 17.7138 170.863 17.3077 170.543 16.6092L168.77 17.4221ZM170.674 19.6384L169.715 21.3377C170.834 21.9689 172.062 22.2762 173.358 22.2762V20.3252V18.3742C172.699 18.3742 172.137 18.2237 171.632 17.9392L170.674 19.6384ZM173.358 20.3252V22.2762C174.683 22.2762 176.008 22 177.061 21.1725L175.856 19.6384L174.65 18.1043C174.538 18.1925 174.198 18.3742 173.358 18.3742V20.3252ZM175.856 19.6384L177.068 21.167C177.951 20.4666 178.6 19.5719 178.975 18.5085L177.135 17.8591L175.296 17.2098C175.172 17.5615 174.967 17.853 174.643 18.1098L175.856 19.6384ZM177.135 17.8591L178.975 18.5085C179.29 17.6157 179.465 16.6977 179.491 15.7609L177.541 15.7052L175.591 15.6495C175.576 16.1695 175.48 16.6874 175.296 17.2098L177.135 17.8591ZM177.541 15.7052L177.238 17.6326L181.609 18.3193L181.912 16.392L182.214 14.4646L177.844 13.7779L177.541 15.7052ZM181.912 16.392L179.961 16.3558C179.943 17.3082 179.803 18.1699 179.553 18.9516L181.412 19.5448L183.271 20.138C183.646 18.9634 183.838 17.7233 183.862 16.4281L181.912 16.392ZM181.412 19.5448L179.553 18.9516C179.328 19.6589 178.975 20.2557 178.494 20.7661L179.914 22.1045L181.333 23.4429C182.225 22.4966 182.872 21.3869 183.271 20.138L181.412 19.5448ZM179.914 22.1045L178.493 20.7674C178.077 21.209 177.474 21.6098 176.602 21.9224L177.26 23.759L177.919 25.5955C179.253 25.1173 180.418 24.4152 181.334 23.4417L179.914 22.1045ZM177.26 23.759L176.602 21.9224C175.77 22.2207 174.664 22.4011 173.233 22.4011V24.3521V26.3031C174.966 26.3031 176.545 26.088 177.919 25.5955L177.26 23.759ZM182.975 23.915H181.024V25.866H182.975V23.915ZM182.975 3.31243V1.36142H181.024V3.31243H182.975ZM188.001 3.31243H189.952V1.36142H188.001V3.31243ZM188.001 23.915V25.866H189.952V23.915H188.001ZM183.88 23.915H181.929V25.866H183.88V23.915ZM183.88 19.7009V17.7499H181.929V19.7009H183.88ZM196.398 19.7009H198.349V17.7499H196.398V19.7009ZM196.398 23.915V25.866H198.349V23.915H196.398ZM182.975 23.915H184.926V3.31243H182.975H181.024V23.915H182.975ZM182.975 3.31243V5.26343H188.001V3.31243V1.36142H182.975V3.31243ZM188.001 3.31243H186.05V23.915H188.001H189.952V3.31243H188.001ZM188.001 23.915V21.964H182.975V23.915V25.866H188.001V23.915ZM183.88 23.915H185.831V19.7009H183.88H181.929V23.915H183.88ZM183.88 19.7009V21.6519H196.398V19.7009V17.7499H183.88V19.7009ZM196.398 19.7009H194.447V23.915H196.398H198.349V19.7009H196.398ZM196.398 23.915V21.964H183.88V23.915V25.866H196.398V23.915ZM202.409 23.9463L202.909 22.0605L202.891 22.0557L202.873 22.0512L202.409 23.9463ZM199.755 22.8225L198.673 24.4458L199.755 22.8225ZM197.882 21.0119L196.266 22.1051L196.277 22.1212L196.288 22.1371L197.882 21.0119ZM196.79 18.6395L194.899 19.123L194.906 19.1494L194.914 19.1755L196.79 18.6395ZM196.446 3.31243V1.36142H194.495V3.31243H196.446ZM201.503 3.31243H203.454V1.36142H201.503V3.31243ZM201.971 18.0464L203.728 17.1966V17.1966L201.971 18.0464ZM203.407 19.4824L202.558 21.2386L202.581 21.2498L202.604 21.2604L203.407 19.4824ZM208.34 19.4824L209.143 21.2604L209.166 21.2498L209.189 21.2386L208.34 19.4824ZM209.776 18.0464L208.019 17.1966V17.1966L209.776 18.0464ZM210.244 3.31243V1.36142H208.293V3.31243H210.244ZM215.27 3.31243H217.221V1.36142H215.27V3.31243ZM212.928 22.1045L214.289 23.5028L214.289 23.5026L212.928 22.1045ZM205.905 24.3521V22.4011C204.724 22.4011 203.731 22.2787 202.909 22.0605L202.409 23.9463L201.908 25.832C203.125 26.1548 204.464 26.3031 205.905 26.3031V24.3521ZM202.409 23.9463L202.873 22.0512C202.037 21.8467 201.369 21.5538 200.837 21.1991L199.755 22.8225L198.673 24.4458C199.639 25.09 200.74 25.5464 201.944 25.8413L202.409 23.9463ZM199.755 22.8225L200.837 21.1991C200.28 20.8275 199.832 20.3905 199.476 19.8868L197.882 21.0119L196.288 22.1371C196.932 23.0485 197.732 23.8185 198.673 24.4458L199.755 22.8225ZM197.882 21.0119L199.498 19.9188C199.142 19.3927 198.862 18.792 198.666 18.1035L196.79 18.6395L194.914 19.1755C195.216 20.2351 195.665 21.2161 196.266 22.1051L197.882 21.0119ZM196.79 18.6395L198.68 18.156C198.496 17.4376 198.397 16.6341 198.397 15.7364H196.446H194.495C194.495 16.9198 194.625 18.0517 194.899 19.123L196.79 18.6395ZM196.446 15.7364H198.397V3.31243H196.446H194.495V15.7364H196.446ZM196.446 3.31243V5.26343H201.503V3.31243V1.36142H196.446V3.31243ZM201.503 3.31243H199.552V15.5803H201.503H203.454V3.31243H201.503ZM201.503 15.5803H199.552C199.552 16.7648 199.735 17.903 200.215 18.8962L201.971 18.0464L203.728 17.1966C203.584 16.8995 203.454 16.3938 203.454 15.5803H201.503ZM201.971 18.0464L200.215 18.8962C200.719 19.9369 201.517 20.735 202.558 21.2386L203.407 19.4824L204.257 17.7261C204.008 17.6054 203.848 17.4462 203.728 17.1966L201.971 18.0464ZM203.407 19.4824L202.604 21.2604C203.583 21.7025 204.704 21.8704 205.874 21.8704V19.9194V17.9684C205.046 17.9684 204.522 17.8449 204.21 17.7043L203.407 19.4824ZM205.874 19.9194V21.8704C207.043 21.8704 208.164 21.7025 209.143 21.2604L208.34 19.4824L207.537 17.7043C207.225 17.8449 206.701 17.9684 205.874 17.9684V19.9194ZM208.34 19.4824L209.189 21.2386C210.23 20.735 211.028 19.9369 211.532 18.8962L209.776 18.0464L208.019 17.1966C207.899 17.4462 207.739 17.6054 207.49 17.7261L208.34 19.4824ZM209.776 18.0464L211.532 18.8962C212.012 17.903 212.195 16.7648 212.195 15.5803H210.244H208.293C208.293 16.3938 208.163 16.8995 208.019 17.1966L209.776 18.0464ZM210.244 15.5803H212.195V3.31243H210.244H208.293V15.5803H210.244ZM210.244 3.31243V5.26343H215.27V3.31243V1.36142H210.244V3.31243ZM215.27 3.31243H213.319V15.7364H215.27H217.221V3.31243H215.27ZM215.27 15.7364H213.319C213.319 18.0766 212.661 19.6422 211.568 20.7064L212.928 22.1045L214.289 23.5026C216.317 21.5285 217.221 18.8487 217.221 15.7364H215.27ZM212.928 22.1045L211.568 20.7062C210.531 21.7152 208.773 22.4011 205.905 22.4011V24.3521V26.3031C209.322 26.3031 212.246 25.4906 214.289 23.5028L212.928 22.1045ZM217.514 23.915H215.563V25.866H217.514V23.915ZM217.514 3.31243V1.36142H215.563V3.31243H217.514ZM229.876 3.6558L229.448 5.55943L229.47 5.56444L229.493 5.56892L229.876 3.6558ZM232.529 4.65472L231.491 6.30651L231.508 6.31728L231.525 6.32769L232.529 4.65472ZM234.183 6.3716L232.459 7.28445L232.475 7.31507L232.493 7.34508L234.183 6.3716ZM234.246 10.9604L232.563 9.9737L232.55 9.99563L232.538 10.0179L234.246 10.9604ZM232.654 12.4275L231.761 10.6925L231.761 10.6925L232.654 12.4275ZM229.751 13.1767L229.55 11.2361L227.8 11.4171V13.1767H229.751ZM229.751 13.7074H227.8V15.5403L229.629 15.6546L229.751 13.7074ZM234.183 15.1433L235.464 13.6711L234.183 15.1433ZM234.652 21.5114L233.14 20.2781L234.652 21.5114ZM231.811 23.3219L232.4 25.1819L232.414 25.1775L232.428 25.1728L231.811 23.3219ZM222.321 19.9194H220.37V21.8704H222.321V19.9194ZM229.813 19.3887L230.8 21.0718L230.821 21.0594L230.842 21.0464L229.813 19.3887ZM229.626 15.674L228.622 17.347L229.626 15.674ZM222.321 15.0185V13.0675H220.37V15.0185H222.321ZM222.321 11.9593H220.37V13.9103H222.321V11.9593ZM228.845 11.3662L229.819 13.057L229.838 13.046L229.857 13.0347L228.845 11.3662ZM228.908 7.80754L227.904 9.48051L227.936 9.5L227.97 9.51821L228.908 7.80754ZM222.321 7.24565V5.29465H220.37V7.24565H222.321ZM217.514 23.915H219.465V3.31243H217.514H215.563V23.915H217.514ZM217.514 3.31243V5.26343H226.411V3.31243V1.36142H217.514V3.31243ZM226.411 3.31243V5.26343C227.589 5.26343 228.597 5.36832 229.448 5.55943L229.876 3.6558L230.303 1.75218C229.115 1.48545 227.812 1.36142 226.411 1.36142V3.31243ZM229.876 3.6558L229.493 5.56892C230.353 5.74099 231.004 6.00056 231.491 6.30651L232.529 4.65472L233.567 3.00293C232.597 2.39321 231.479 1.98683 230.258 1.74269L229.876 3.6558ZM232.529 4.65472L231.525 6.32769C231.968 6.59337 232.261 6.91058 232.459 7.28445L234.183 6.3716L235.908 5.45875C235.356 4.4175 234.547 3.59012 233.533 2.98174L232.529 4.65472ZM234.183 6.3716L232.493 7.34508C232.685 7.67975 232.825 8.15108 232.825 8.83767H234.776H236.727C236.727 7.60968 236.472 6.43696 235.874 5.39812L234.183 6.3716ZM234.776 8.83767H232.825C232.825 9.3587 232.715 9.71449 232.563 9.9737L234.246 10.9604L235.929 11.947C236.484 10.9992 236.727 9.93988 236.727 8.83767H234.776ZM234.246 10.9604L232.538 10.0179C232.425 10.2223 232.211 10.4612 231.761 10.6925L232.654 12.4275L233.546 14.1625C234.553 13.6447 235.401 12.9055 235.954 11.9029L234.246 10.9604ZM232.654 12.4275L231.761 10.6925C231.326 10.9163 230.621 11.1253 229.55 11.2361L229.751 13.1767L229.951 15.1174C231.294 14.9784 232.524 14.6879 233.546 14.1625L232.654 12.4275ZM229.751 13.1767H227.8V13.7074H229.751H231.702V13.1767H229.751ZM229.751 13.7074L229.629 15.6546C231.43 15.7671 232.409 16.1856 232.903 16.6156L234.183 15.1433L235.464 13.6711C234.043 12.4361 232.067 11.8974 229.872 11.7602L229.751 13.7074ZM234.183 15.1433L232.903 16.6156C233.382 17.0321 233.668 17.5912 233.668 18.5147H235.619H237.57C237.57 16.6079 236.899 14.9194 235.464 13.6711L234.183 15.1433ZM235.619 18.5147H233.668C233.668 19.358 233.451 19.8966 233.14 20.2781L234.652 21.5114L236.163 22.7447C237.142 21.5446 237.57 20.0854 237.57 18.5147H235.619ZM234.652 21.5114L233.14 20.2781C232.787 20.7103 232.192 21.1384 231.194 21.471L231.811 23.3219L232.428 25.1728C233.927 24.6731 235.226 23.8941 236.163 22.7447L234.652 21.5114ZM231.811 23.3219L231.222 21.462C230.223 21.7783 228.896 21.964 227.191 21.964V23.915V25.866C229.149 25.866 230.902 25.6563 232.4 25.1819L231.811 23.3219ZM227.191 23.915V21.964H217.514V23.915V25.866H227.191V23.915ZM222.321 19.9194V21.8704H227.004V19.9194V17.9684H222.321V19.9194ZM227.004 19.9194V21.8704C228.378 21.8704 229.741 21.6924 230.8 21.0718L229.813 19.3887L228.826 17.7056C228.678 17.7926 228.168 17.9684 227.004 17.9684V19.9194ZM229.813 19.3887L230.842 21.0464C232.092 20.2703 232.669 19.0151 232.669 17.6406H230.718H228.767C228.767 17.7147 228.76 17.7577 228.756 17.776C228.752 17.7932 228.751 17.7896 228.76 17.7736C228.768 17.7568 228.78 17.7404 228.792 17.7282C228.802 17.7168 228.803 17.7191 228.784 17.7311L229.813 19.3887ZM230.718 17.6406H232.669C232.669 16.1056 231.966 14.803 230.63 14.001L229.626 15.674L228.622 17.347C228.681 17.3822 228.711 17.4091 228.724 17.4223C228.736 17.4346 228.739 17.4402 228.74 17.4409C228.74 17.4418 228.746 17.4516 228.752 17.4779C228.759 17.5057 228.767 17.5576 228.767 17.6406H230.718ZM229.626 15.674L230.63 14.001C229.446 13.2907 227.903 13.0675 226.286 13.0675V15.0185V16.9695C227.665 16.9695 228.349 17.1833 228.622 17.347L229.626 15.674ZM226.286 15.0185V13.0675H222.321V15.0185V16.9695H226.286V15.0185ZM222.321 15.0185H220.37V19.9194H222.321H224.272V15.0185H222.321ZM222.321 11.9593V13.9103H225.599V11.9593V10.0083H222.321V11.9593ZM225.599 11.9593V13.9103C227.169 13.9103 228.677 13.7146 229.819 13.057L228.845 11.3662L227.872 9.67539C227.641 9.80854 226.984 10.0083 225.599 10.0083V11.9593ZM228.845 11.3662L229.857 13.0347C231.134 12.2602 231.827 11.0093 231.827 9.52443H229.876H227.924C227.924 9.58963 227.918 9.62559 227.914 9.63919C227.911 9.65147 227.91 9.6497 227.915 9.64119C227.92 9.6326 227.923 9.63094 227.916 9.63738C227.909 9.64475 227.885 9.66661 227.834 9.69768L228.845 11.3662ZM229.876 9.52443H231.827C231.827 8.86165 231.69 8.17687 231.333 7.54413C230.972 6.904 230.448 6.42714 229.846 6.09688L228.908 7.80754L227.97 9.51821C227.996 9.53265 227.996 9.53649 227.982 9.5234C227.976 9.51712 227.967 9.50817 227.958 9.4966C227.949 9.485 227.941 9.4726 227.934 9.46007C227.927 9.44758 227.922 9.43696 227.919 9.42935C227.916 9.42183 227.916 9.41882 227.916 9.42157C227.918 9.42725 227.924 9.45891 227.924 9.52443H229.876ZM228.908 7.80754L229.912 6.13457C228.831 5.48607 227.443 5.29465 226.036 5.29465V7.24565V9.19666C227.209 9.19666 227.736 9.37982 227.904 9.48051L228.908 7.80754ZM226.036 7.24565V5.29465H222.321V7.24565V9.19666H226.036V7.24565ZM222.321 7.24565H220.37V11.9593H222.321H224.272V7.24565H222.321Z" fill="black" fill-opacity="0.59" mask="url(#path-1-outside-1_38_137)"/>
</g>
<defs>
<filter id="filter0_d_38_137" x="0.55876" y="0.924316" width="239.093" height="30.0613" filterUnits="userSpaceOnUse" color-interpolation-filters="sRGB">
<feFlood flood-opacity="0" result="BackgroundImageFix"/>
<feColorMatrix in="SourceAlpha" type="matrix" values="0 0 0 0 0 0 0 0 0 0 0 0 0 0 0 0 0 0 127 0" result="hardAlpha"/>
<feOffset dy="2.60134"/>
<feGaussianBlur stdDeviation="1.04054"/>
<feComposite in2="hardAlpha" operator="out"/>
<feColorMatrix type="matrix" values="0 0 0 0 0 0 0 0 0 0 0 0 0 0 0 0 0 0 0.25 0"/>
<feBlend mode="normal" in2="BackgroundImageFix" result="effect1_dropShadow_38_137"/>
<feBlend mode="normal" in="SourceGraphic" in2="effect1_dropShadow_38_137" result="shape"/>
</filter>
</defs>
</svg>
